<svg width="173" height="33" viewBox="0 0 173 33" fill="none" xmlns="http://www.w3.org/2000/svg">
<g clip-path="url(#clip0_268_645)">
<path d="M44.9816 14.5902C45.573 12.9342 46.0748 11.2417 46.4798 9.56015C46.8884 7.86036 47.0963 6.39037 47.0963 5.19395C47.0963 3.91364 46.7415 2.86312 46.0425 2.07888C45.3329 1.28006 44.3615 0.87517 43.1644 0.87517C41.9673 0.87517 40.8454 1.24358 39.6949 1.9731C38.5694 2.68439 37.5945 3.5817 36.788 4.64681C36.0031 5.68273 35.2074 6.94845 34.426 8.4075C33.6949 9.77171 32.8454 11.6283 31.8992 13.9336C31.9493 13.744 31.9995 13.5652 32.0425 13.3938C32.8669 10.2605 33.2827 7.59043 33.2827 5.46023C33.2827 2.9689 32.5694 0.00338899 29.168 0.00338899C28.0389 0.00338899 26.8669 0.462989 25.6913 1.36395C25.1787 1.74695 24.6411 2.26856 24.0999 2.91419C23.5694 3.54158 23.0963 4.14344 22.6913 4.70152C22.2827 5.2669 21.8275 5.99278 21.34 6.85726C20.8597 7.71081 20.4583 8.44398 20.1501 9.03854C19.8418 9.62945 19.4726 10.3955 19.0533 11.3147C18.6411 12.2193 18.3293 12.9233 18.1214 13.4047C18.064 13.5433 17.9995 13.6929 17.9278 13.8607C18.2397 12.2594 18.3974 10.8842 18.3974 9.74618C18.3974 7.17461 17.8454 4.94956 16.7594 3.13305C16.1895 2.17737 15.3974 1.40772 14.4081 0.842341C13.4189 0.280608 12.1967 -0.00390625 10.7737 -0.00390625C9.35078 -0.00390625 7.99594 0.317084 6.71278 0.95177C5.43321 1.58281 4.3687 2.41446 3.54791 3.41391C2.74146 4.39877 2.05687 5.53683 1.51207 6.79525C0.970848 8.04639 0.576583 9.30846 0.340024 10.5377C0.107049 11.7633 -0.0112305 13.1895 -0.0112305 14.7762C-0.0112305 16.363 0.264755 18.2561 0.809558 20.379C1.33644 22.4399 4.18232 30.7747 5.27192 32.5912C5.3221 32.7043 5.4368 32.9158 5.70203 32.9158C5.71995 32.9158 5.73787 32.9158 5.75938 32.9158L5.98519 32.8903L6.10346 32.6933C6.22174 32.4964 6.15723 32.3286 6.11063 32.2046C5.48698 30.5668 2.36511 22.0934 2.11063 15.9325C1.93142 11.6065 2.49415 10.2277 3.27192 8.31631L3.3687 8.07922C3.7988 6.99587 4.32927 6.00737 4.94934 5.13559C5.55508 4.28934 6.33644 3.57441 7.27192 3.01997C8.19307 2.47283 9.31135 2.19561 10.6017 2.19561C11.892 2.19561 12.7809 2.65521 13.4834 3.59629C14.2074 4.56656 14.573 5.79581 14.573 7.24391C14.573 8.20688 14.4762 9.17715 14.3794 10.1182C14.3257 10.6727 14.2648 11.2453 14.2289 11.8107C13.5443 22.2174 13.4332 25.5659 14.0605 26.248C14.1787 26.3757 14.3364 26.4486 14.5013 26.4486C14.978 26.4486 15.3185 25.9525 15.849 24.4789C16.6447 22.2903 17.5981 19.8902 18.6805 17.3442C19.7594 14.8018 20.8561 12.4016 21.9386 10.2094C23.0067 8.04639 24.1393 6.22258 25.3042 4.79271C26.3974 3.44674 27.3579 2.76099 28.1572 2.76099C28.7952 2.76099 29.1178 3.52334 29.1178 5.02981C29.1178 6.1861 28.9027 7.75822 28.4834 9.70241C27.3902 14.8784 25.6518 20.5614 23.3185 26.5982L21.0999 32.4854H26.8741L26.9888 32.19C27.3185 31.3364 28.3185 28.7101 30.1285 23.9354C30.9673 21.7505 32.1357 19.0148 33.6017 15.7976C36.0461 10.4173 39.5515 4.00847 42.3472 4.00847C42.487 4.00847 42.8131 4.00847 42.8131 5.00792C42.8131 6.63841 41.745 10.4429 39.6339 16.3192C38.8454 18.5515 38.107 20.9115 37.4404 23.3336C36.7558 25.8212 36.4225 27.5867 36.4225 28.7357C36.4225 29.8847 36.6841 30.9206 37.1967 31.7085C37.7486 32.5584 38.6626 32.9888 39.9135 32.9888C41.1644 32.9888 42.3293 32.3979 43.5013 31.2379C44.6303 30.1181 45.5515 28.67 46.2325 26.941L46.3544 26.6274L44.573 25.099L44.3078 25.606C43.7665 26.6419 43.1644 27.583 42.5264 28.4037C41.7558 29.3922 41.3257 29.498 41.1751 29.498C40.9314 29.498 40.9135 28.7503 40.9135 28.5752C41.0139 26.445 41.7845 23.3956 43.2074 19.5109C43.7952 17.8767 44.383 16.2353 44.9708 14.5829L44.9816 14.5902Z" fill="white"/>
<path d="M62.0646 16.7428C60.8711 15.9878 59.4589 15.6084 57.8352 15.6084C56.2116 15.6084 54.5593 16.0388 52.889 16.9033C51.2188 17.7678 49.8245 18.9861 48.7098 20.5619C47.5951 22.1376 47.0396 23.852 47.0396 25.705C47.0396 27.558 47.6775 29.1301 48.9499 30.4141C50.2223 31.7017 51.8137 32.3437 53.7241 32.3437C54.3801 32.3437 55.0575 32.289 55.7671 32.1832C58.9858 31.6251 61.3299 30.0967 62.7958 27.5945L61.656 26.8394C61.0001 27.6127 60.1471 28.2839 59.0969 28.8492C58.0431 29.4146 57.0324 29.6991 56.0575 29.6991C53.4231 29.6991 52.0539 28.6632 51.9464 26.595L53.0861 26.6497C55.3155 26.6497 57.5879 26.1719 59.9033 25.2199C61.0718 24.7347 62.0324 24.0271 62.7958 23.1006C63.5557 22.1741 63.9249 21.0725 63.8962 19.7922C63.8675 18.5155 63.2582 17.4979 62.0646 16.7428ZM59.0145 22.2106C58.5449 22.9401 57.7134 23.5857 56.5198 24.1548C55.3263 24.7201 53.7492 25.0411 51.7851 25.1141C51.7851 23.9614 52.0324 22.8161 52.527 21.6744C53.0216 20.5327 53.7421 19.5588 54.6883 18.7599C55.6345 17.9575 56.674 17.5599 57.8066 17.5599C58.2654 17.5599 58.699 17.7532 59.1077 18.1398C59.5163 18.5265 59.717 19.1211 59.717 19.9235C59.717 20.726 59.484 21.4884 59.0145 22.2179V22.2106Z" fill="white"/>
<path d="M96.5877 28.7542C96.2687 28.7542 96.111 28.4952 96.111 27.9699C96.111 27.4447 96.5267 26.0403 97.3583 23.746C98.1898 21.4516 98.6056 19.8102 98.6056 18.818C98.6056 17.8259 98.3475 17.0453 97.835 16.469C97.3224 15.8927 96.473 15.6045 95.2902 15.6045C92.8851 15.6045 90.4515 17.162 87.9963 20.2734C87.093 21.4261 85.7955 23.4067 84.0966 26.2118C84.2221 25.8142 84.4945 25.0555 84.9174 23.932C85.3403 22.8085 85.6737 21.8237 85.9138 20.9774C86.154 20.1312 86.2722 19.3178 86.2722 18.5335C86.2722 17.7493 86.007 17.0672 85.4765 16.4836C84.9461 15.8999 84.1719 15.6081 83.154 15.6081C82.136 15.6081 81.1325 15.8525 80.1432 16.3377C79.7346 16.5346 79.3045 16.8228 78.8421 17.2021C78.3834 17.5815 77.9891 17.9207 77.6629 18.2271C77.3368 18.5335 76.9604 18.953 76.5339 19.4819C76.111 20.0145 75.7669 20.4449 75.5124 20.7768C75.2543 21.1087 74.731 21.9076 73.9353 23.166C73.1396 24.4244 72.5626 25.3692 72.2113 26.0002C72.2472 25.909 72.3439 25.6063 72.5016 25.081C72.6593 24.5594 72.7884 24.1436 72.8852 23.8408C72.9819 23.5344 73.111 23.0931 73.2687 22.5167C73.4264 21.9404 73.5518 21.4443 73.6414 21.0321C73.731 20.6163 73.8099 20.164 73.8816 19.6679C73.9533 19.1719 73.9891 18.6065 73.9891 17.9681C73.9891 17.3298 73.792 16.7754 73.3941 16.3085C72.9963 15.8416 72.5231 15.6081 71.9748 15.6081C70.7705 15.6081 69.5948 16.1516 68.4479 17.2423C67.2973 18.3329 66.0321 20.0181 64.6558 22.3052L66.4335 23.3593C66.4694 23.3046 66.5518 23.1587 66.6844 22.9143C66.8171 22.6699 66.9353 22.4657 67.0429 22.2942C67.1504 22.1228 67.283 21.893 67.4407 21.6048C68.1468 20.361 68.7561 19.7409 69.2723 19.7409C69.5554 19.7409 69.6952 20.1786 69.6952 21.0504C69.6952 21.9222 68.9282 24.7017 67.3869 29.3779L66.5662 31.9166H70.3045L71.0464 30.6217C72.5124 28.083 73.9998 25.7631 75.5016 23.6584C76.4049 22.4 77.3439 21.3313 78.326 20.4595C79.3081 19.5877 80.1611 19.15 80.8852 19.15C81.4694 19.15 81.7597 19.5001 81.7597 20.2041C81.7597 21.8419 81.2472 24.129 80.2221 27.0617C79.7633 28.4113 79.4443 29.4363 79.2687 30.1403L78.7633 31.9203H82.688C83.2364 30.8224 84.1898 29.2028 85.5518 27.0617C88.8959 21.7872 91.4479 19.1536 93.2185 19.1536C93.8386 19.1536 94.1468 19.5038 94.1468 20.2078C94.1468 21.324 93.792 22.9216 93.0859 25.0008C92.3798 27.0799 92.0249 28.528 92.0249 29.3451C92.0249 30.1621 92.2006 30.8698 92.5554 31.4643C92.9102 32.0589 93.5339 32.3544 94.4264 32.3544C95.3188 32.3544 96.3941 31.8364 97.6486 30.8005C98.9031 29.7645 100.054 28.3019 101.097 26.4124L99.9568 25.3327C98.4192 27.6197 97.2938 28.7615 96.5877 28.7615V28.7542Z" fill="white"/>
<path d="M118.66 17.5231C117.158 16.2465 115.23 15.6045 112.878 15.6045C110.527 15.6045 108.219 16.5419 105.954 18.4132C104.928 19.2776 104.093 20.3355 103.448 21.5866C102.803 22.8377 102.48 24.1363 102.48 25.4895C102.48 27.4884 103.183 29.1299 104.588 30.4175C105.993 31.7051 107.699 32.3471 109.706 32.3471C111.713 32.3471 113.566 31.9203 115.265 31.0631C116.964 30.2096 118.33 29.0168 119.362 27.4848C120.398 25.9564 120.914 24.2311 120.914 22.3161C120.914 20.4011 120.161 18.8035 118.66 17.5231ZM115.079 27.7547C114.706 28.6192 114.165 29.3195 113.448 29.8594C112.731 30.3992 111.968 30.6692 111.154 30.6692C108.609 30.6692 107.334 28.9402 107.334 25.4859C107.334 23.0931 107.903 21.1197 109.043 19.5731C110.183 18.0265 111.337 17.2532 112.506 17.2532C113.674 17.2532 114.574 17.7092 115.212 18.6174C115.85 19.5257 116.165 20.8644 116.165 22.6262C116.165 24.388 115.803 26.0987 115.079 27.7547Z" fill="white"/>
<path d="M139.882 15.6081C138.961 15.6081 138.007 15.8416 137.018 16.3085C136.627 16.5055 136.219 16.7973 135.785 17.1876C135.351 17.5742 134.979 17.9171 134.67 18.2125C134.362 18.508 134.004 18.9275 133.595 19.4673C133.186 20.0072 132.871 20.4376 132.642 20.7622C132.412 21.0869 131.918 21.8784 131.154 23.1368C130.394 24.3953 129.853 25.3509 129.538 25.9966C129.573 25.9054 129.67 25.6026 129.828 25.0774C129.986 24.5557 130.115 24.1399 130.211 23.8372C130.308 23.5308 130.437 23.0894 130.595 22.5167C130.753 21.9404 130.878 21.448 130.968 21.0321C131.057 20.62 131.136 20.164 131.208 19.6679C131.28 19.1719 131.315 18.6065 131.315 17.9681C131.315 17.3298 131.115 16.7754 130.717 16.3085C130.319 15.8416 129.846 15.6081 129.298 15.6081C128.093 15.6081 126.918 16.1516 125.771 17.2423C124.62 18.3329 123.358 20.0181 121.979 22.3052L123.756 23.3593C123.792 23.3046 123.875 23.1551 124.007 22.9143C124.14 22.6699 124.258 22.4657 124.366 22.2942C124.473 22.1228 124.606 21.893 124.763 21.6048C125.47 20.3646 126.079 19.7409 126.595 19.7409C126.878 19.7409 127.018 20.1786 127.018 21.0504C127.018 21.9222 126.247 24.698 124.71 29.3779L123.889 31.9166H127.631L128.348 30.6217C129.781 27.9954 131.186 25.6719 132.566 23.6548C133.434 22.3964 134.326 21.3276 135.244 20.4558C136.165 19.584 136.957 19.1463 137.631 19.1463C137.914 19.1463 138.24 19.471 138.613 20.1166C138.735 20.35 138.968 20.5725 139.301 20.7768C139.638 20.9847 140.1 21.0869 140.695 21.0869C141.29 21.0869 141.81 20.8133 142.262 20.2625C142.713 19.7154 142.939 19.0734 142.939 18.3439C142.939 17.6143 142.66 16.976 142.104 16.4289C141.548 15.8781 140.81 15.6045 139.889 15.6045L139.882 15.6081Z" fill="white"/>
<path d="M153.222 4.99707C152.427 4.99707 151.778 5.28888 151.272 5.87615C150.767 6.45977 150.516 7.13093 150.516 7.88963C150.516 8.64834 150.72 9.27208 151.125 9.76451C151.53 10.2569 152.143 10.505 152.957 10.505C153.771 10.505 154.416 10.2095 154.892 9.61495C155.369 9.02039 155.609 8.36017 155.609 7.63065C155.609 6.90113 155.412 6.28103 155.014 5.76672C154.616 5.2524 154.018 4.99707 153.226 4.99707H153.222Z" fill="white"/>
<path d="M150.147 28.7539C149.828 28.7539 149.67 28.5423 149.67 28.1192C149.67 27.6961 149.767 27.2255 149.961 26.7003L151.871 21.1377C152.226 19.9157 152.401 19.0221 152.401 18.464C152.401 16.5563 151.659 15.6006 150.172 15.6006C147.996 15.6006 145.609 17.8329 143.011 22.2976L144.789 23.3518C146.168 20.8677 147.168 19.6276 147.785 19.6276C148.032 19.6276 148.158 19.8209 148.158 20.2075C148.158 20.5942 147.95 21.3638 147.534 22.5165C147.118 23.6691 146.703 24.9494 146.287 26.3611C145.871 27.7763 145.663 28.8889 145.663 29.7096C145.663 30.5303 145.875 31.1723 146.301 31.6392C146.724 32.1061 147.312 32.3432 148.065 32.3432C148.817 32.3432 149.849 31.8033 151.168 30.7236C152.487 29.6439 153.624 28.2031 154.577 26.4048L153.462 25.3507C151.853 27.6195 150.746 28.7502 150.147 28.7502V28.7539Z" fill="white"/>
<path d="M169.007 25.2199C170.175 24.7347 171.136 24.0271 171.9 23.1006C172.659 22.1741 173.029 21.0725 173 19.7922C172.971 18.5155 172.362 17.4979 171.168 16.7428C169.975 15.9878 168.563 15.6084 166.935 15.6084C165.308 15.6084 163.659 16.0388 161.989 16.9033C160.319 17.7678 158.925 18.9861 157.81 20.5619C156.695 22.1376 156.14 23.852 156.14 25.705C156.14 27.558 156.778 29.1301 158.05 30.4141C159.322 31.7017 160.914 32.3437 162.824 32.3437C163.48 32.3437 164.161 32.289 164.867 32.1832C168.086 31.6251 170.43 30.0967 171.896 27.5945L170.756 26.8394C170.1 27.6127 169.247 28.2839 168.197 28.8492C167.143 29.4146 166.132 29.6991 165.158 29.6991C162.523 29.6991 161.154 28.6632 161.046 26.595L162.186 26.6497C164.416 26.6497 166.688 26.1719 169.003 25.2199H169.007ZM160.889 25.1104C160.889 23.9578 161.136 22.8124 161.631 21.6707C162.125 20.529 162.846 19.5551 163.792 18.7563C164.738 17.9538 165.778 17.5562 166.91 17.5562C167.369 17.5562 167.803 17.7495 168.211 18.1362C168.62 18.5228 168.821 19.1174 168.821 19.9199C168.821 20.7224 168.588 21.4847 168.118 22.2142C167.649 22.9438 166.817 23.5894 165.624 24.1584C164.43 24.7238 162.853 25.0448 160.889 25.1177V25.1104Z" fill="white"/>
</g>
<defs>
<clipPath id="clip0_268_645">
<rect width="173" height="33" fill="white"/>
</clipPath>
</defs>
</svg>
