<svg width="679" height="679" viewBox="0 0 679 679" fill="none" xmlns="http://www.w3.org/2000/svg">
<path d="M269.215 18.7598C273.074 18.7598 276.202 15.6314 276.202 11.7724C276.202 7.9133 273.074 4.7849 269.215 4.7849C265.357 4.7849 262.229 7.9133 262.229 11.7724C262.229 15.6314 265.357 18.7598 269.215 18.7598Z" fill="white" fill-opacity="0.05"/>
<path d="M339.462 18.7598C343.321 18.7598 346.449 15.6314 346.449 11.7724C346.449 7.9133 343.321 4.7849 339.462 4.7849C335.603 4.7849 332.475 7.9133 332.475 11.7724C332.475 15.6314 335.603 18.7598 339.462 18.7598Z" fill="white" fill-opacity="0.05"/>
<path d="M362.852 18.7598C366.711 18.7598 369.839 15.6314 369.839 11.7724C369.839 7.9133 366.711 4.7849 362.852 4.7849C358.994 4.7849 355.866 7.9133 355.866 11.7724C355.866 15.6314 358.994 18.7598 362.852 18.7598Z" fill="white" fill-opacity="0.05"/>
<path d="M386.242 18.7598C390.101 18.7598 393.229 15.6314 393.229 11.7724C393.229 7.9133 390.101 4.7849 386.242 4.7849C382.384 4.7849 379.256 7.9133 379.256 11.7724C379.256 15.6314 382.384 18.7598 386.242 18.7598Z" fill="white" fill-opacity="0.05"/>
<path d="M433.099 18.7598C436.958 18.7598 440.086 15.6314 440.086 11.7724C440.086 7.9133 436.958 4.7849 433.099 4.7849C429.24 4.7849 426.112 7.9133 426.112 11.7724C426.112 15.6314 429.24 18.7598 433.099 18.7598Z" fill="white" fill-opacity="0.05"/>
<path d="M479.879 18.7598C483.738 18.7598 486.866 15.6314 486.866 11.7724C486.866 7.9133 483.738 4.7849 479.879 4.7849C476.021 4.7849 472.893 7.9133 472.893 11.7724C472.893 15.6314 476.021 18.7598 479.879 18.7598Z" fill="white" fill-opacity="0.05"/>
<path d="M222.359 42.1527C226.218 42.1527 229.346 39.0243 229.346 35.1652C229.346 31.3061 226.218 28.1777 222.359 28.1777C218.5 28.1777 215.372 31.3061 215.372 35.1652C215.372 39.0243 218.5 42.1527 222.359 42.1527Z" fill="white" fill-opacity="0.05"/>
<path d="M245.825 42.1527C249.684 42.1527 252.812 39.0243 252.812 35.1652C252.812 31.3061 249.684 28.1777 245.825 28.1777C241.967 28.1777 238.839 31.3061 238.839 35.1652C238.839 39.0243 241.967 42.1527 245.825 42.1527Z" fill="white" fill-opacity="0.05"/>
<path d="M269.215 42.1527C273.074 42.1527 276.202 39.0243 276.202 35.1652C276.202 31.3061 273.074 28.1777 269.215 28.1777C265.357 28.1777 262.229 31.3061 262.229 35.1652C262.229 39.0243 265.357 42.1527 269.215 42.1527Z" fill="white" fill-opacity="0.05"/>
<path d="M315.996 42.1527C319.854 42.1527 322.983 39.0243 322.983 35.1652C322.983 31.3061 319.854 28.1777 315.996 28.1777C312.137 28.1777 309.009 31.3061 309.009 35.1652C309.009 39.0243 312.137 42.1527 315.996 42.1527Z" fill="white" fill-opacity="0.05"/>
<path d="M339.462 42.1527C343.321 42.1527 346.449 39.0243 346.449 35.1652C346.449 31.3061 343.321 28.1777 339.462 28.1777C335.603 28.1777 332.475 31.3061 332.475 35.1652C332.475 39.0243 335.603 42.1527 339.462 42.1527Z" fill="white" fill-opacity="0.05"/>
<path d="M362.852 42.1527C366.711 42.1527 369.839 39.0243 369.839 35.1652C369.839 31.3061 366.711 28.1777 362.852 28.1777C358.994 28.1777 355.866 31.3061 355.866 35.1652C355.866 39.0243 358.994 42.1527 362.852 42.1527Z" fill="white" fill-opacity="0.05"/>
<path d="M433.099 42.1527C436.958 42.1527 440.086 39.0243 440.086 35.1652C440.086 31.3061 436.958 28.1777 433.099 28.1777C429.24 28.1777 426.112 31.3061 426.112 35.1652C426.112 39.0243 429.24 42.1527 433.099 42.1527Z" fill="white" fill-opacity="0.05"/>
<path d="M456.489 42.1527C460.348 42.1527 463.476 39.0243 463.476 35.1652C463.476 31.3061 460.348 28.1777 456.489 28.1777C452.63 28.1777 449.502 31.3061 449.502 35.1652C449.502 39.0243 452.63 42.1527 456.489 42.1527Z" fill="white" fill-opacity="0.05"/>
<path d="M479.879 42.1527C483.738 42.1527 486.866 39.0243 486.866 35.1652C486.866 31.3061 483.738 28.1777 479.879 28.1777C476.021 28.1777 472.893 31.3061 472.893 35.1652C472.893 39.0243 476.021 42.1527 479.879 42.1527Z" fill="white" fill-opacity="0.05"/>
<path d="M222.359 65.6215C226.218 65.6215 229.346 62.4931 229.346 58.634C229.346 54.7749 226.218 51.6465 222.359 51.6465C218.5 51.6465 215.372 54.7749 215.372 58.634C215.372 62.4931 218.5 65.6215 222.359 65.6215Z" fill="white" fill-opacity="0.05"/>
<path d="M269.215 65.6215C273.074 65.6215 276.202 62.4931 276.202 58.634C276.202 54.7749 273.074 51.6465 269.215 51.6465C265.357 51.6465 262.229 54.7749 262.229 58.634C262.229 62.4931 265.357 65.6215 269.215 65.6215Z" fill="white" fill-opacity="0.05"/>
<path d="M315.996 65.6215C319.854 65.6215 322.983 62.4931 322.983 58.634C322.983 54.7749 319.854 51.6465 315.996 51.6465C312.137 51.6465 309.009 54.7749 309.009 58.634C309.009 62.4931 312.137 65.6215 315.996 65.6215Z" fill="white" fill-opacity="0.05"/>
<path d="M339.462 65.6215C343.321 65.6215 346.449 62.4931 346.449 58.634C346.449 54.7749 343.321 51.6465 339.462 51.6465C335.603 51.6465 332.475 54.7749 332.475 58.634C332.475 62.4931 335.603 65.6215 339.462 65.6215Z" fill="white" fill-opacity="0.05"/>
<path d="M362.852 65.6215C366.711 65.6215 369.839 62.4931 369.839 58.634C369.839 54.7749 366.711 51.6465 362.852 51.6465C358.994 51.6465 355.866 54.7749 355.866 58.634C355.866 62.4931 358.994 65.6215 362.852 65.6215Z" fill="white" fill-opacity="0.05"/>
<path d="M433.099 65.6215C436.958 65.6215 440.086 62.4931 440.086 58.634C440.086 54.7749 436.958 51.6465 433.099 51.6465C429.24 51.6465 426.112 54.7749 426.112 58.634C426.112 62.4931 429.24 65.6215 433.099 65.6215Z" fill="white" fill-opacity="0.05"/>
<path d="M479.879 65.6215C483.738 65.6215 486.866 62.4931 486.866 58.634C486.866 54.7749 483.738 51.6465 479.879 51.6465C476.021 51.6465 472.893 54.7749 472.893 58.634C472.893 62.4931 476.021 65.6215 479.879 65.6215Z" fill="white" fill-opacity="0.05"/>
<path d="M222.359 89.0143C226.218 89.0143 229.346 85.8859 229.346 82.0268C229.346 78.1678 226.218 75.0394 222.359 75.0394C218.5 75.0394 215.372 78.1678 215.372 82.0268C215.372 85.8859 218.5 89.0143 222.359 89.0143Z" fill="white" fill-opacity="0.05"/>
<path d="M245.825 89.0143C249.684 89.0143 252.812 85.8859 252.812 82.0268C252.812 78.1678 249.684 75.0394 245.825 75.0394C241.967 75.0394 238.839 78.1678 238.839 82.0268C238.839 85.8859 241.967 89.0143 245.825 89.0143Z" fill="white" fill-opacity="0.05"/>
<path d="M269.215 89.0143C273.074 89.0143 276.202 85.8859 276.202 82.0268C276.202 78.1678 273.074 75.0394 269.215 75.0394C265.357 75.0394 262.229 78.1678 262.229 82.0268C262.229 85.8859 265.357 89.0143 269.215 89.0143Z" fill="white" fill-opacity="0.05"/>
<path d="M339.462 89.0143C343.321 89.0143 346.449 85.8859 346.449 82.0268C346.449 78.1678 343.321 75.0394 339.462 75.0394C335.603 75.0394 332.475 78.1678 332.475 82.0268C332.475 85.8859 335.603 89.0143 339.462 89.0143Z" fill="white" fill-opacity="0.05"/>
<path d="M362.852 89.0143C366.711 89.0143 369.839 85.8859 369.839 82.0268C369.839 78.1678 366.711 75.0394 362.852 75.0394C358.994 75.0394 355.866 78.1678 355.866 82.0268C355.866 85.8859 358.994 89.0143 362.852 89.0143Z" fill="white" fill-opacity="0.05"/>
<path d="M386.242 89.0143C390.101 89.0143 393.229 85.8859 393.229 82.0268C393.229 78.1678 390.101 75.0394 386.242 75.0394C382.384 75.0394 379.256 78.1678 379.256 82.0268C379.256 85.8859 382.384 89.0143 386.242 89.0143Z" fill="white" fill-opacity="0.05"/>
<path d="M409.709 89.0143C413.567 89.0143 416.695 85.8859 416.695 82.0268C416.695 78.1678 413.567 75.0394 409.709 75.0394C405.85 75.0394 402.722 78.1678 402.722 82.0268C402.722 85.8859 405.85 89.0143 409.709 89.0143Z" fill="white" fill-opacity="0.05"/>
<path d="M433.099 89.0143C436.958 89.0143 440.086 85.8859 440.086 82.0268C440.086 78.1678 436.958 75.0394 433.099 75.0394C429.24 75.0394 426.112 78.1678 426.112 82.0268C426.112 85.8859 429.24 89.0143 433.099 89.0143Z" fill="white" fill-opacity="0.05"/>
<path d="M456.489 89.0143C460.348 89.0143 463.476 85.8859 463.476 82.0268C463.476 78.1678 460.348 75.0394 456.489 75.0394C452.63 75.0394 449.502 78.1678 449.502 82.0268C449.502 85.8859 452.63 89.0143 456.489 89.0143Z" fill="white" fill-opacity="0.05"/>
<path d="M479.879 89.0143C483.738 89.0143 486.866 85.8859 486.866 82.0268C486.866 78.1678 483.738 75.0394 479.879 75.0394C476.021 75.0394 472.893 78.1678 472.893 82.0268C472.893 85.8859 476.021 89.0143 479.879 89.0143Z" fill="white" fill-opacity="0.05"/>
<path d="M198.969 112.407C202.827 112.407 205.955 109.279 205.955 105.42C205.955 101.561 202.827 98.4322 198.969 98.4322C195.11 98.4322 191.982 101.561 191.982 105.42C191.982 109.279 195.11 112.407 198.969 112.407Z" fill="white" fill-opacity="0.05"/>
<path d="M222.359 112.407C226.218 112.407 229.346 109.279 229.346 105.42C229.346 101.561 226.218 98.4322 222.359 98.4322C218.5 98.4322 215.372 101.561 215.372 105.42C215.372 109.279 218.5 112.407 222.359 112.407Z" fill="white" fill-opacity="0.05"/>
<path d="M245.825 112.407C249.684 112.407 252.812 109.279 252.812 105.42C252.812 101.561 249.684 98.4322 245.825 98.4322C241.967 98.4322 238.839 101.561 238.839 105.42C238.839 109.279 241.967 112.407 245.825 112.407Z" fill="white" fill-opacity="0.05"/>
<path d="M362.852 112.407C366.711 112.407 369.839 109.279 369.839 105.42C369.839 101.561 366.711 98.4322 362.852 98.4322C358.994 98.4322 355.866 101.561 355.866 105.42C355.866 109.279 358.994 112.407 362.852 112.407Z" fill="white" fill-opacity="0.05"/>
<path d="M409.709 112.407C413.567 112.407 416.695 109.279 416.695 105.42C416.695 101.561 413.567 98.4322 409.709 98.4322C405.85 98.4322 402.722 101.561 402.722 105.42C402.722 109.279 405.85 112.407 409.709 112.407Z" fill="white" fill-opacity="0.05"/>
<path d="M456.489 112.407C460.348 112.407 463.476 109.279 463.476 105.42C463.476 101.561 460.348 98.4322 456.489 98.4322C452.63 98.4322 449.502 101.561 449.502 105.42C449.502 109.279 452.63 112.407 456.489 112.407Z" fill="white" fill-opacity="0.05"/>
<path d="M245.825 135.876C249.684 135.876 252.812 132.748 252.812 128.888C252.812 125.029 249.684 121.901 245.825 121.901C241.967 121.901 238.839 125.029 238.839 128.888C238.839 132.748 241.967 135.876 245.825 135.876Z" fill="white" fill-opacity="0.05"/>
<path d="M292.606 135.876C296.464 135.876 299.592 132.748 299.592 128.888C299.592 125.029 296.464 121.901 292.606 121.901C288.747 121.901 285.619 125.029 285.619 128.888C285.619 132.748 288.747 135.876 292.606 135.876Z" fill="white" fill-opacity="0.05"/>
<path d="M315.996 135.876C319.854 135.876 322.983 132.748 322.983 128.888C322.983 125.029 319.854 121.901 315.996 121.901C312.137 121.901 309.009 125.029 309.009 128.888C309.009 132.748 312.137 135.876 315.996 135.876Z" fill="white" fill-opacity="0.05"/>
<path d="M339.462 135.876C343.321 135.876 346.449 132.748 346.449 128.888C346.449 125.029 343.321 121.901 339.462 121.901C335.603 121.901 332.475 125.029 332.475 128.888C332.475 132.748 335.603 135.876 339.462 135.876Z" fill="white" fill-opacity="0.05"/>
<path d="M456.489 135.876C460.348 135.876 463.476 132.748 463.476 128.888C463.476 125.029 460.348 121.901 456.489 121.901C452.63 121.901 449.502 125.029 449.502 128.888C449.502 132.748 452.63 135.876 456.489 135.876Z" fill="white" fill-opacity="0.05"/>
<path d="M479.879 135.876C483.738 135.876 486.866 132.748 486.866 128.888C486.866 125.029 483.738 121.901 479.879 121.901C476.021 121.901 472.893 125.029 472.893 128.888C472.893 132.748 476.021 135.876 479.879 135.876Z" fill="white" fill-opacity="0.05"/>
<path d="M198.969 159.269C202.827 159.269 205.955 156.14 205.955 152.281C205.955 148.422 202.827 145.294 198.969 145.294C195.11 145.294 191.982 148.422 191.982 152.281C191.982 156.14 195.11 159.269 198.969 159.269Z" fill="white" fill-opacity="0.05"/>
<path d="M245.825 159.269C249.684 159.269 252.812 156.14 252.812 152.281C252.812 148.422 249.684 145.294 245.825 145.294C241.967 145.294 238.839 148.422 238.839 152.281C238.839 156.14 241.967 159.269 245.825 159.269Z" fill="white" fill-opacity="0.05"/>
<path d="M292.606 159.269C296.464 159.269 299.592 156.14 299.592 152.281C299.592 148.422 296.464 145.294 292.606 145.294C288.747 145.294 285.619 148.422 285.619 152.281C285.619 156.14 288.747 159.269 292.606 159.269Z" fill="white" fill-opacity="0.05"/>
<path d="M339.462 159.269C343.321 159.269 346.449 156.14 346.449 152.281C346.449 148.422 343.321 145.294 339.462 145.294C335.603 145.294 332.475 148.422 332.475 152.281C332.475 156.14 335.603 159.269 339.462 159.269Z" fill="white" fill-opacity="0.05"/>
<path d="M386.242 159.269C390.101 159.269 393.229 156.14 393.229 152.281C393.229 148.422 390.101 145.294 386.242 145.294C382.384 145.294 379.256 148.422 379.256 152.281C379.256 156.14 382.384 159.269 386.242 159.269Z" fill="white" fill-opacity="0.05"/>
<path d="M433.099 159.269C436.958 159.269 440.086 156.14 440.086 152.281C440.086 148.422 436.958 145.294 433.099 145.294C429.24 145.294 426.112 148.422 426.112 152.281C426.112 156.14 429.24 159.269 433.099 159.269Z" fill="white" fill-opacity="0.05"/>
<path d="M479.879 159.269C483.738 159.269 486.866 156.14 486.866 152.281C486.866 148.422 483.738 145.294 479.879 145.294C476.021 145.294 472.893 148.422 472.893 152.281C472.893 156.14 476.021 159.269 479.879 159.269Z" fill="white" fill-opacity="0.05"/>
<path d="M198.969 182.662C202.827 182.662 205.955 179.533 205.955 175.674C205.955 171.815 202.827 168.687 198.969 168.687C195.11 168.687 191.982 171.815 191.982 175.674C191.982 179.533 195.11 182.662 198.969 182.662Z" fill="white" fill-opacity="0.05"/>
<path d="M292.606 182.662C296.464 182.662 299.592 179.533 299.592 175.674C299.592 171.815 296.464 168.687 292.606 168.687C288.747 168.687 285.619 171.815 285.619 175.674C285.619 179.533 288.747 182.662 292.606 182.662Z" fill="white" fill-opacity="0.05"/>
<path d="M339.462 182.662C343.321 182.662 346.449 179.533 346.449 175.674C346.449 171.815 343.321 168.687 339.462 168.687C335.603 168.687 332.475 171.815 332.475 175.674C332.475 179.533 335.603 182.662 339.462 182.662Z" fill="white" fill-opacity="0.05"/>
<path d="M409.709 182.662C413.567 182.662 416.695 179.533 416.695 175.674C416.695 171.815 413.567 168.687 409.709 168.687C405.85 168.687 402.722 171.815 402.722 175.674C402.722 179.533 405.85 182.662 409.709 182.662Z" fill="white" fill-opacity="0.05"/>
<path d="M433.099 182.662C436.958 182.662 440.086 179.533 440.086 175.674C440.086 171.815 436.958 168.687 433.099 168.687C429.24 168.687 426.112 171.815 426.112 175.674C426.112 179.533 429.24 182.662 433.099 182.662Z" fill="white" fill-opacity="0.05"/>
<path d="M456.489 182.662C460.348 182.662 463.476 179.533 463.476 175.674C463.476 171.815 460.348 168.687 456.489 168.687C452.63 168.687 449.502 171.815 449.502 175.674C449.502 179.533 452.63 182.662 456.489 182.662Z" fill="white" fill-opacity="0.05"/>
<path d="M58.5515 206.054C62.4101 206.054 65.5382 202.926 65.5382 199.067C65.5382 195.208 62.4101 192.08 58.5515 192.08C54.6929 192.08 51.5648 195.208 51.5648 199.067C51.5648 202.926 54.6929 206.054 58.5515 206.054Z" fill="white" fill-opacity="0.05"/>
<path d="M81.9417 206.054C85.8004 206.054 88.9284 202.926 88.9284 199.067C88.9284 195.208 85.8004 192.08 81.9417 192.08C78.0831 192.08 74.955 195.208 74.955 199.067C74.955 202.926 78.0831 206.054 81.9417 206.054Z" fill="white" fill-opacity="0.05"/>
<path d="M152.188 206.054C156.047 206.054 159.175 202.926 159.175 199.067C159.175 195.208 156.047 192.08 152.188 192.08C148.33 192.08 145.202 195.208 145.202 199.067C145.202 202.926 148.33 206.054 152.188 206.054Z" fill="white" fill-opacity="0.05"/>
<path d="M175.579 206.054C179.437 206.054 182.565 202.926 182.565 199.067C182.565 195.208 179.437 192.08 175.579 192.08C171.72 192.08 168.592 195.208 168.592 199.067C168.592 202.926 171.72 206.054 175.579 206.054Z" fill="white" fill-opacity="0.05"/>
<path d="M198.969 206.054C202.827 206.054 205.955 202.926 205.955 199.067C205.955 195.208 202.827 192.08 198.969 192.08C195.11 192.08 191.982 195.208 191.982 199.067C191.982 202.926 195.11 206.054 198.969 206.054Z" fill="white" fill-opacity="0.05"/>
<path d="M315.996 206.054C319.854 206.054 322.983 202.926 322.983 199.067C322.983 195.208 319.854 192.08 315.996 192.08C312.137 192.08 309.009 195.208 309.009 199.067C309.009 202.926 312.137 206.054 315.996 206.054Z" fill="white" fill-opacity="0.05"/>
<path d="M456.489 206.054C460.348 206.054 463.476 202.926 463.476 199.067C463.476 195.208 460.348 192.08 456.489 192.08C452.63 192.08 449.502 195.208 449.502 199.067C449.502 202.926 452.63 206.054 456.489 206.054Z" fill="white" fill-opacity="0.05"/>
<path d="M503.345 206.054C507.204 206.054 510.332 202.926 510.332 199.067C510.332 195.208 507.204 192.08 503.345 192.08C499.487 192.08 496.359 195.208 496.359 199.067C496.359 202.926 499.487 206.054 503.345 206.054Z" fill="white" fill-opacity="0.05"/>
<path d="M526.736 206.054C530.594 206.054 533.722 202.926 533.722 199.067C533.722 195.208 530.594 192.08 526.736 192.08C522.877 192.08 519.749 195.208 519.749 199.067C519.749 202.926 522.877 206.054 526.736 206.054Z" fill="white" fill-opacity="0.05"/>
<path d="M573.516 206.054C577.375 206.054 580.503 202.926 580.503 199.067C580.503 195.208 577.375 192.08 573.516 192.08C569.657 192.08 566.529 195.208 566.529 199.067C566.529 202.926 569.657 206.054 573.516 206.054Z" fill="white" fill-opacity="0.05"/>
<path d="M11.6951 229.523C15.5538 229.523 18.6818 226.395 18.6818 222.536C18.6818 218.677 15.5538 215.548 11.6951 215.548C7.83647 215.548 4.70842 218.677 4.70842 222.536C4.70842 226.395 7.83647 229.523 11.6951 229.523Z" fill="white" fill-opacity="0.05"/>
<path d="M35.0853 229.523C38.944 229.523 42.072 226.395 42.072 222.536C42.072 218.677 38.944 215.548 35.0853 215.548C31.2267 215.548 28.0986 218.677 28.0986 222.536C28.0986 226.395 31.2267 229.523 35.0853 229.523Z" fill="white" fill-opacity="0.05"/>
<path d="M58.5515 229.523C62.4101 229.523 65.5382 226.395 65.5382 222.536C65.5382 218.677 62.4101 215.548 58.5515 215.548C54.6929 215.548 51.5648 218.677 51.5648 222.536C51.5648 226.395 54.6929 229.523 58.5515 229.523Z" fill="white" fill-opacity="0.05"/>
<path d="M105.332 229.523C109.191 229.523 112.319 226.395 112.319 222.536C112.319 218.677 109.191 215.548 105.332 215.548C101.473 215.548 98.3453 218.677 98.3453 222.536C98.3453 226.395 101.473 229.523 105.332 229.523Z" fill="white" fill-opacity="0.05"/>
<path d="M128.722 229.523C132.581 229.523 135.709 226.395 135.709 222.536C135.709 218.677 132.581 215.548 128.722 215.548C124.864 215.548 121.735 218.677 121.735 222.536C121.735 226.395 124.864 229.523 128.722 229.523Z" fill="white" fill-opacity="0.05"/>
<path d="M292.606 229.523C296.464 229.523 299.592 226.395 299.592 222.536C299.592 218.677 296.464 215.548 292.606 215.548C288.747 215.548 285.619 218.677 285.619 222.536C285.619 226.395 288.747 229.523 292.606 229.523Z" fill="white" fill-opacity="0.05"/>
<path d="M315.996 229.523C319.854 229.523 322.983 226.395 322.983 222.536C322.983 218.677 319.854 215.548 315.996 215.548C312.137 215.548 309.009 218.677 309.009 222.536C309.009 226.395 312.137 229.523 315.996 229.523Z" fill="white" fill-opacity="0.05"/>
<path d="M386.242 229.523C390.101 229.523 393.229 226.395 393.229 222.536C393.229 218.677 390.101 215.548 386.242 215.548C382.384 215.548 379.256 218.677 379.256 222.536C379.256 226.395 382.384 229.523 386.242 229.523Z" fill="white" fill-opacity="0.05"/>
<path d="M409.709 229.523C413.567 229.523 416.695 226.395 416.695 222.536C416.695 218.677 413.567 215.548 409.709 215.548C405.85 215.548 402.722 218.677 402.722 222.536C402.722 226.395 405.85 229.523 409.709 229.523Z" fill="white" fill-opacity="0.05"/>
<path d="M503.345 229.523C507.204 229.523 510.332 226.395 510.332 222.536C510.332 218.677 507.204 215.548 503.345 215.548C499.487 215.548 496.359 218.677 496.359 222.536C496.359 226.395 499.487 229.523 503.345 229.523Z" fill="white" fill-opacity="0.05"/>
<path d="M526.736 229.523C530.594 229.523 533.722 226.395 533.722 222.536C533.722 218.677 530.594 215.548 526.736 215.548C522.877 215.548 519.749 218.677 519.749 222.536C519.749 226.395 522.877 229.523 526.736 229.523Z" fill="white" fill-opacity="0.05"/>
<path d="M550.126 229.523C553.985 229.523 557.113 226.395 557.113 222.536C557.113 218.677 553.985 215.548 550.126 215.548C546.267 215.548 543.139 218.677 543.139 222.536C543.139 226.395 546.267 229.523 550.126 229.523Z" fill="white" fill-opacity="0.05"/>
<path d="M573.516 229.523C577.375 229.523 580.503 226.395 580.503 222.536C580.503 218.677 577.375 215.548 573.516 215.548C569.657 215.548 566.529 218.677 566.529 222.536C566.529 226.395 569.657 229.523 573.516 229.523Z" fill="white" fill-opacity="0.05"/>
<path d="M596.982 229.523C600.841 229.523 603.969 226.395 603.969 222.536C603.969 218.677 600.841 215.548 596.982 215.548C593.124 215.548 589.996 218.677 589.996 222.536C589.996 226.395 593.124 229.523 596.982 229.523Z" fill="white" fill-opacity="0.05"/>
<path d="M667.153 229.523C671.012 229.523 674.14 226.395 674.14 222.536C674.14 218.677 671.012 215.548 667.153 215.548C663.294 215.548 660.166 218.677 660.166 222.536C660.166 226.395 663.294 229.523 667.153 229.523Z" fill="white" fill-opacity="0.05"/>
<path d="M11.6951 252.916C15.5538 252.916 18.6818 249.788 18.6818 245.929C18.6818 242.07 15.5538 238.941 11.6951 238.941C7.83647 238.941 4.70842 242.07 4.70842 245.929C4.70842 249.788 7.83647 252.916 11.6951 252.916Z" fill="white" fill-opacity="0.05"/>
<path d="M35.0853 252.916C38.944 252.916 42.072 249.788 42.072 245.929C42.072 242.07 38.944 238.941 35.0853 238.941C31.2267 238.941 28.0986 242.07 28.0986 245.929C28.0986 249.788 31.2267 252.916 35.0853 252.916Z" fill="white" fill-opacity="0.05"/>
<path d="M58.5515 252.916C62.4101 252.916 65.5382 249.788 65.5382 245.929C65.5382 242.07 62.4101 238.941 58.5515 238.941C54.6929 238.941 51.5648 242.07 51.5648 245.929C51.5648 249.788 54.6929 252.916 58.5515 252.916Z" fill="white" fill-opacity="0.05"/>
<path d="M128.722 252.916C132.581 252.916 135.709 249.788 135.709 245.929C135.709 242.07 132.581 238.941 128.722 238.941C124.864 238.941 121.735 242.07 121.735 245.929C121.735 249.788 124.864 252.916 128.722 252.916Z" fill="white" fill-opacity="0.05"/>
<path d="M152.188 252.916C156.047 252.916 159.175 249.788 159.175 245.929C159.175 242.07 156.047 238.941 152.188 238.941C148.33 238.941 145.202 242.07 145.202 245.929C145.202 249.788 148.33 252.916 152.188 252.916Z" fill="white" fill-opacity="0.05"/>
<path d="M175.579 252.916C179.437 252.916 182.565 249.788 182.565 245.929C182.565 242.07 179.437 238.941 175.579 238.941C171.72 238.941 168.592 242.07 168.592 245.929C168.592 249.788 171.72 252.916 175.579 252.916Z" fill="white" fill-opacity="0.05"/>
<path d="M526.736 252.916C530.594 252.916 533.722 249.788 533.722 245.929C533.722 242.07 530.594 238.941 526.736 238.941C522.877 238.941 519.749 242.07 519.749 245.929C519.749 249.788 522.877 252.916 526.736 252.916Z" fill="white" fill-opacity="0.05"/>
<path d="M596.982 252.916C600.841 252.916 603.969 249.788 603.969 245.929C603.969 242.07 600.841 238.941 596.982 238.941C593.124 238.941 589.996 242.07 589.996 245.929C589.996 249.788 593.124 252.916 596.982 252.916Z" fill="white" fill-opacity="0.05"/>
<path d="M620.372 252.916C624.231 252.916 627.359 249.788 627.359 245.929C627.359 242.07 624.231 238.941 620.372 238.941C616.514 238.941 613.386 242.07 613.386 245.929C613.386 249.788 616.514 252.916 620.372 252.916Z" fill="white" fill-opacity="0.05"/>
<path d="M643.763 252.916C647.621 252.916 650.749 249.788 650.749 245.929C650.749 242.07 647.621 238.941 643.763 238.941C639.904 238.941 636.776 242.07 636.776 245.929C636.776 249.788 639.904 252.916 643.763 252.916Z" fill="white" fill-opacity="0.05"/>
<path d="M58.5515 276.309C62.4101 276.309 65.5382 273.181 65.5382 269.322C65.5382 265.462 62.4101 262.334 58.5515 262.334C54.6929 262.334 51.5648 265.462 51.5648 269.322C51.5648 273.181 54.6929 276.309 58.5515 276.309Z" fill="white" fill-opacity="0.05"/>
<path d="M175.579 276.309C179.437 276.309 182.565 273.181 182.565 269.322C182.565 265.462 179.437 262.334 175.579 262.334C171.72 262.334 168.592 265.462 168.592 269.322C168.592 273.181 171.72 276.309 175.579 276.309Z" fill="white" fill-opacity="0.05"/>
<path d="M222.359 276.309C226.218 276.309 229.346 273.181 229.346 269.322C229.346 265.462 226.218 262.334 222.359 262.334C218.5 262.334 215.372 265.462 215.372 269.322C215.372 273.181 218.5 276.309 222.359 276.309Z" fill="white" fill-opacity="0.05"/>
<path d="M456.489 276.309C460.348 276.309 463.476 273.181 463.476 269.322C463.476 265.462 460.348 262.334 456.489 262.334C452.63 262.334 449.502 265.462 449.502 269.322C449.502 273.181 452.63 276.309 456.489 276.309Z" fill="white" fill-opacity="0.05"/>
<path d="M479.879 276.309C483.738 276.309 486.866 273.181 486.866 269.322C486.866 265.462 483.738 262.334 479.879 262.334C476.021 262.334 472.893 265.462 472.893 269.322C472.893 273.181 476.021 276.309 479.879 276.309Z" fill="white" fill-opacity="0.05"/>
<path d="M573.516 276.309C577.375 276.309 580.503 273.181 580.503 269.322C580.503 265.462 577.375 262.334 573.516 262.334C569.657 262.334 566.529 265.462 566.529 269.322C566.529 273.181 569.657 276.309 573.516 276.309Z" fill="white" fill-opacity="0.05"/>
<path d="M667.153 276.309C671.012 276.309 674.14 273.181 674.14 269.322C674.14 265.462 671.012 262.334 667.153 262.334C663.294 262.334 660.166 265.462 660.166 269.322C660.166 273.181 663.294 276.309 667.153 276.309Z" fill="white" fill-opacity="0.05"/>
<path d="M105.332 299.702C109.191 299.702 112.319 296.573 112.319 292.714C112.319 288.855 109.191 285.727 105.332 285.727C101.473 285.727 98.3453 288.855 98.3453 292.714C98.3453 296.573 101.473 299.702 105.332 299.702Z" fill="white" fill-opacity="0.05"/>
<path d="M152.188 299.702C156.047 299.702 159.175 296.573 159.175 292.714C159.175 288.855 156.047 285.727 152.188 285.727C148.33 285.727 145.202 288.855 145.202 292.714C145.202 296.573 148.33 299.702 152.188 299.702Z" fill="white" fill-opacity="0.05"/>
<path d="M479.879 299.702C483.738 299.702 486.866 296.573 486.866 292.714C486.866 288.855 483.738 285.727 479.879 285.727C476.021 285.727 472.893 288.855 472.893 292.714C472.893 296.573 476.021 299.702 479.879 299.702Z" fill="white" fill-opacity="0.05"/>
<path d="M503.345 299.702C507.204 299.702 510.332 296.573 510.332 292.714C510.332 288.855 507.204 285.727 503.345 285.727C499.487 285.727 496.359 288.855 496.359 292.714C496.359 296.573 499.487 299.702 503.345 299.702Z" fill="white" fill-opacity="0.05"/>
<path d="M550.126 299.702C553.985 299.702 557.113 296.573 557.113 292.714C557.113 288.855 553.985 285.727 550.126 285.727C546.267 285.727 543.139 288.855 543.139 292.714C543.139 296.573 546.267 299.702 550.126 299.702Z" fill="white" fill-opacity="0.05"/>
<path d="M620.372 299.702C624.231 299.702 627.359 296.573 627.359 292.714C627.359 288.855 624.231 285.727 620.372 285.727C616.514 285.727 613.386 288.855 613.386 292.714C613.386 296.573 616.514 299.702 620.372 299.702Z" fill="white" fill-opacity="0.05"/>
<path d="M643.763 299.702C647.621 299.702 650.749 296.573 650.749 292.714C650.749 288.855 647.621 285.727 643.763 285.727C639.904 285.727 636.776 288.855 636.776 292.714C636.776 296.573 639.904 299.702 643.763 299.702Z" fill="white" fill-opacity="0.05"/>
<path d="M667.153 299.702C671.012 299.702 674.14 296.573 674.14 292.714C674.14 288.855 671.012 285.727 667.153 285.727C663.294 285.727 660.166 288.855 660.166 292.714C660.166 296.573 663.294 299.702 667.153 299.702Z" fill="white" fill-opacity="0.05"/>
<path d="M11.6951 323.171C15.5538 323.171 18.6818 320.042 18.6818 316.183C18.6818 312.324 15.5538 309.196 11.6951 309.196C7.83647 309.196 4.70842 312.324 4.70842 316.183C4.70842 320.042 7.83647 323.171 11.6951 323.171Z" fill="white" fill-opacity="0.05"/>
<path d="M58.5515 323.171C62.4101 323.171 65.5382 320.042 65.5382 316.183C65.5382 312.324 62.4101 309.196 58.5515 309.196C54.6929 309.196 51.5648 312.324 51.5648 316.183C51.5648 320.042 54.6929 323.171 58.5515 323.171Z" fill="white" fill-opacity="0.05"/>
<path d="M81.9417 323.171C85.8004 323.171 88.9284 320.042 88.9284 316.183C88.9284 312.324 85.8004 309.196 81.9417 309.196C78.0831 309.196 74.955 312.324 74.955 316.183C74.955 320.042 78.0831 323.171 81.9417 323.171Z" fill="white" fill-opacity="0.05"/>
<path d="M175.579 323.171C179.437 323.171 182.565 320.042 182.565 316.183C182.565 312.324 179.437 309.196 175.579 309.196C171.72 309.196 168.592 312.324 168.592 316.183C168.592 320.042 171.72 323.171 175.579 323.171Z" fill="white" fill-opacity="0.05"/>
<path d="M222.359 323.171C226.218 323.171 229.346 320.042 229.346 316.183C229.346 312.324 226.218 309.196 222.359 309.196C218.5 309.196 215.372 312.324 215.372 316.183C215.372 320.042 218.5 323.171 222.359 323.171Z" fill="white" fill-opacity="0.05"/>
<path d="M456.489 323.171C460.348 323.171 463.476 320.042 463.476 316.183C463.476 312.324 460.348 309.196 456.489 309.196C452.63 309.196 449.502 312.324 449.502 316.183C449.502 320.042 452.63 323.171 456.489 323.171Z" fill="white" fill-opacity="0.05"/>
<path d="M526.736 323.171C530.594 323.171 533.722 320.042 533.722 316.183C533.722 312.324 530.594 309.196 526.736 309.196C522.877 309.196 519.749 312.324 519.749 316.183C519.749 320.042 522.877 323.171 526.736 323.171Z" fill="white" fill-opacity="0.05"/>
<path d="M550.126 323.171C553.985 323.171 557.113 320.042 557.113 316.183C557.113 312.324 553.985 309.196 550.126 309.196C546.267 309.196 543.139 312.324 543.139 316.183C543.139 320.042 546.267 323.171 550.126 323.171Z" fill="white" fill-opacity="0.05"/>
<path d="M596.982 323.171C600.841 323.171 603.969 320.042 603.969 316.183C603.969 312.324 600.841 309.196 596.982 309.196C593.124 309.196 589.996 312.324 589.996 316.183C589.996 320.042 593.124 323.171 596.982 323.171Z" fill="white" fill-opacity="0.05"/>
<path d="M620.372 323.171C624.231 323.171 627.359 320.042 627.359 316.183C627.359 312.324 624.231 309.196 620.372 309.196C616.514 309.196 613.386 312.324 613.386 316.183C613.386 320.042 616.514 323.171 620.372 323.171Z" fill="white" fill-opacity="0.05"/>
<path d="M667.153 323.171C671.012 323.171 674.14 320.042 674.14 316.183C674.14 312.324 671.012 309.196 667.153 309.196C663.294 309.196 660.166 312.324 660.166 316.183C660.166 320.042 663.294 323.171 667.153 323.171Z" fill="white" fill-opacity="0.05"/>
<path d="M35.0853 346.563C38.944 346.563 42.072 343.435 42.072 339.576C42.072 335.717 38.944 332.588 35.0853 332.588C31.2267 332.588 28.0986 335.717 28.0986 339.576C28.0986 343.435 31.2267 346.563 35.0853 346.563Z" fill="white" fill-opacity="0.05"/>
<path d="M105.332 346.563C109.191 346.563 112.319 343.435 112.319 339.576C112.319 335.717 109.191 332.588 105.332 332.588C101.473 332.588 98.3453 335.717 98.3453 339.576C98.3453 343.435 101.473 346.563 105.332 346.563Z" fill="white" fill-opacity="0.05"/>
<path d="M128.722 346.563C132.581 346.563 135.709 343.435 135.709 339.576C135.709 335.717 132.581 332.588 128.722 332.588C124.864 332.588 121.735 335.717 121.735 339.576C121.735 343.435 124.864 346.563 128.722 346.563Z" fill="white" fill-opacity="0.05"/>
<path d="M152.188 346.563C156.047 346.563 159.175 343.435 159.175 339.576C159.175 335.717 156.047 332.588 152.188 332.588C148.33 332.588 145.202 335.717 145.202 339.576C145.202 343.435 148.33 346.563 152.188 346.563Z" fill="white" fill-opacity="0.05"/>
<path d="M222.359 346.563C226.218 346.563 229.346 343.435 229.346 339.576C229.346 335.717 226.218 332.588 222.359 332.588C218.5 332.588 215.372 335.717 215.372 339.576C215.372 343.435 218.5 346.563 222.359 346.563Z" fill="white" fill-opacity="0.05"/>
<path d="M456.489 346.563C460.348 346.563 463.476 343.435 463.476 339.576C463.476 335.717 460.348 332.588 456.489 332.588C452.63 332.588 449.502 335.717 449.502 339.576C449.502 343.435 452.63 346.563 456.489 346.563Z" fill="white" fill-opacity="0.05"/>
<path d="M479.879 346.563C483.738 346.563 486.866 343.435 486.866 339.576C486.866 335.717 483.738 332.588 479.879 332.588C476.021 332.588 472.893 335.717 472.893 339.576C472.893 343.435 476.021 346.563 479.879 346.563Z" fill="white" fill-opacity="0.05"/>
<path d="M503.345 346.563C507.204 346.563 510.332 343.435 510.332 339.576C510.332 335.717 507.204 332.588 503.345 332.588C499.487 332.588 496.359 335.717 496.359 339.576C496.359 343.435 499.487 346.563 503.345 346.563Z" fill="white" fill-opacity="0.05"/>
<path d="M526.736 346.563C530.594 346.563 533.722 343.435 533.722 339.576C533.722 335.717 530.594 332.588 526.736 332.588C522.877 332.588 519.749 335.717 519.749 339.576C519.749 343.435 522.877 346.563 526.736 346.563Z" fill="white" fill-opacity="0.05"/>
<path d="M550.126 346.563C553.985 346.563 557.113 343.435 557.113 339.576C557.113 335.717 553.985 332.588 550.126 332.588C546.267 332.588 543.139 335.717 543.139 339.576C543.139 343.435 546.267 346.563 550.126 346.563Z" fill="white" fill-opacity="0.05"/>
<path d="M573.516 346.563C577.375 346.563 580.503 343.435 580.503 339.576C580.503 335.717 577.375 332.588 573.516 332.588C569.657 332.588 566.529 335.717 566.529 339.576C566.529 343.435 569.657 346.563 573.516 346.563Z" fill="white" fill-opacity="0.05"/>
<path d="M596.982 346.563C600.841 346.563 603.969 343.435 603.969 339.576C603.969 335.717 600.841 332.588 596.982 332.588C593.124 332.588 589.996 335.717 589.996 339.576C589.996 343.435 593.124 346.563 596.982 346.563Z" fill="white" fill-opacity="0.05"/>
<path d="M643.763 346.563C647.621 346.563 650.749 343.435 650.749 339.576C650.749 335.717 647.621 332.588 643.763 332.588C639.904 332.588 636.776 335.717 636.776 339.576C636.776 343.435 639.904 346.563 643.763 346.563Z" fill="white" fill-opacity="0.05"/>
<path d="M667.153 346.563C671.012 346.563 674.14 343.435 674.14 339.576C674.14 335.717 671.012 332.588 667.153 332.588C663.294 332.588 660.166 335.717 660.166 339.576C660.166 343.435 663.294 346.563 667.153 346.563Z" fill="white" fill-opacity="0.05"/>
<path d="M11.6951 369.956C15.5538 369.956 18.6818 366.828 18.6818 362.969C18.6818 359.11 15.5538 355.981 11.6951 355.981C7.83647 355.981 4.70842 359.11 4.70842 362.969C4.70842 366.828 7.83647 369.956 11.6951 369.956Z" fill="white" fill-opacity="0.05"/>
<path d="M105.332 369.956C109.191 369.956 112.319 366.828 112.319 362.969C112.319 359.11 109.191 355.981 105.332 355.981C101.473 355.981 98.3453 359.11 98.3453 362.969C98.3453 366.828 101.473 369.956 105.332 369.956Z" fill="white" fill-opacity="0.05"/>
<path d="M175.579 369.956C179.437 369.956 182.565 366.828 182.565 362.969C182.565 359.11 179.437 355.981 175.579 355.981C171.72 355.981 168.592 359.11 168.592 362.969C168.592 366.828 171.72 369.956 175.579 369.956Z" fill="white" fill-opacity="0.05"/>
<path d="M222.359 369.956C226.218 369.956 229.346 366.828 229.346 362.969C229.346 359.11 226.218 355.981 222.359 355.981C218.5 355.981 215.372 359.11 215.372 362.969C215.372 366.828 218.5 369.956 222.359 369.956Z" fill="white" fill-opacity="0.05"/>
<path d="M456.489 369.956C460.348 369.956 463.476 366.828 463.476 362.969C463.476 359.11 460.348 355.981 456.489 355.981C452.63 355.981 449.502 359.11 449.502 362.969C449.502 366.828 452.63 369.956 456.489 369.956Z" fill="white" fill-opacity="0.05"/>
<path d="M479.879 369.956C483.738 369.956 486.866 366.828 486.866 362.969C486.866 359.11 483.738 355.981 479.879 355.981C476.021 355.981 472.893 359.11 472.893 362.969C472.893 366.828 476.021 369.956 479.879 369.956Z" fill="white" fill-opacity="0.05"/>
<path d="M573.516 369.956C577.375 369.956 580.503 366.828 580.503 362.969C580.503 359.11 577.375 355.981 573.516 355.981C569.657 355.981 566.529 359.11 566.529 362.969C566.529 366.828 569.657 369.956 573.516 369.956Z" fill="white" fill-opacity="0.05"/>
<path d="M596.982 369.956C600.841 369.956 603.969 366.828 603.969 362.969C603.969 359.11 600.841 355.981 596.982 355.981C593.124 355.981 589.996 359.11 589.996 362.969C589.996 366.828 593.124 369.956 596.982 369.956Z" fill="white" fill-opacity="0.05"/>
<path d="M11.6951 393.425C15.5538 393.425 18.6818 390.297 18.6818 386.438C18.6818 382.579 15.5538 379.45 11.6951 379.45C7.83647 379.45 4.70842 382.579 4.70842 386.438C4.70842 390.297 7.83647 393.425 11.6951 393.425Z" fill="white" fill-opacity="0.05"/>
<path d="M58.5515 393.425C62.4101 393.425 65.5382 390.297 65.5382 386.438C65.5382 382.579 62.4101 379.45 58.5515 379.45C54.6929 379.45 51.5648 382.579 51.5648 386.438C51.5648 390.297 54.6929 393.425 58.5515 393.425Z" fill="white" fill-opacity="0.05"/>
<path d="M81.9417 393.425C85.8004 393.425 88.9284 390.297 88.9284 386.438C88.9284 382.579 85.8004 379.45 81.9417 379.45C78.0831 379.45 74.955 382.579 74.955 386.438C74.955 390.297 78.0831 393.425 81.9417 393.425Z" fill="white" fill-opacity="0.05"/>
<path d="M152.188 393.425C156.047 393.425 159.175 390.297 159.175 386.438C159.175 382.579 156.047 379.45 152.188 379.45C148.33 379.45 145.202 382.579 145.202 386.438C145.202 390.297 148.33 393.425 152.188 393.425Z" fill="white" fill-opacity="0.05"/>
<path d="M175.579 393.425C179.437 393.425 182.565 390.297 182.565 386.438C182.565 382.579 179.437 379.45 175.579 379.45C171.72 379.45 168.592 382.579 168.592 386.438C168.592 390.297 171.72 393.425 175.579 393.425Z" fill="white" fill-opacity="0.05"/>
<path d="M198.969 393.425C202.827 393.425 205.955 390.297 205.955 386.438C205.955 382.579 202.827 379.45 198.969 379.45C195.11 379.45 191.982 382.579 191.982 386.438C191.982 390.297 195.11 393.425 198.969 393.425Z" fill="white" fill-opacity="0.05"/>
<path d="M479.879 393.425C483.738 393.425 486.866 390.297 486.866 386.438C486.866 382.579 483.738 379.45 479.879 379.45C476.021 379.45 472.893 382.579 472.893 386.438C472.893 390.297 476.021 393.425 479.879 393.425Z" fill="white" fill-opacity="0.05"/>
<path d="M550.126 393.425C553.985 393.425 557.113 390.297 557.113 386.438C557.113 382.579 553.985 379.45 550.126 379.45C546.267 379.45 543.139 382.579 543.139 386.438C543.139 390.297 546.267 393.425 550.126 393.425Z" fill="white" fill-opacity="0.05"/>
<path d="M573.516 393.425C577.375 393.425 580.503 390.297 580.503 386.438C580.503 382.579 577.375 379.45 573.516 379.45C569.657 379.45 566.529 382.579 566.529 386.438C566.529 390.297 569.657 393.425 573.516 393.425Z" fill="white" fill-opacity="0.05"/>
<path d="M596.982 393.425C600.841 393.425 603.969 390.297 603.969 386.438C603.969 382.579 600.841 379.45 596.982 379.45C593.124 379.45 589.996 382.579 589.996 386.438C589.996 390.297 593.124 393.425 596.982 393.425Z" fill="white" fill-opacity="0.05"/>
<path d="M643.763 393.425C647.621 393.425 650.749 390.297 650.749 386.438C650.749 382.579 647.621 379.45 643.763 379.45C639.904 379.45 636.776 382.579 636.776 386.438C636.776 390.297 639.904 393.425 643.763 393.425Z" fill="white" fill-opacity="0.05"/>
<path d="M667.153 393.425C671.012 393.425 674.14 390.297 674.14 386.438C674.14 382.579 671.012 379.45 667.153 379.45C663.294 379.45 660.166 382.579 660.166 386.438C660.166 390.297 663.294 393.425 667.153 393.425Z" fill="white" fill-opacity="0.05"/>
<path d="M128.722 416.818C132.581 416.818 135.709 413.69 135.709 409.83C135.709 405.971 132.581 402.843 128.722 402.843C124.864 402.843 121.735 405.971 121.735 409.83C121.735 413.69 124.864 416.818 128.722 416.818Z" fill="white" fill-opacity="0.05"/>
<path d="M222.359 416.818C226.218 416.818 229.346 413.69 229.346 409.83C229.346 405.971 226.218 402.843 222.359 402.843C218.5 402.843 215.372 405.971 215.372 409.83C215.372 413.69 218.5 416.818 222.359 416.818Z" fill="white" fill-opacity="0.05"/>
<path d="M479.879 416.818C483.738 416.818 486.866 413.69 486.866 409.83C486.866 405.971 483.738 402.843 479.879 402.843C476.021 402.843 472.893 405.971 472.893 409.83C472.893 413.69 476.021 416.818 479.879 416.818Z" fill="white" fill-opacity="0.05"/>
<path d="M550.126 416.818C553.985 416.818 557.113 413.69 557.113 409.83C557.113 405.971 553.985 402.843 550.126 402.843C546.267 402.843 543.139 405.971 543.139 409.83C543.139 413.69 546.267 416.818 550.126 416.818Z" fill="white" fill-opacity="0.05"/>
<path d="M620.372 416.818C624.231 416.818 627.359 413.69 627.359 409.83C627.359 405.971 624.231 402.843 620.372 402.843C616.514 402.843 613.386 405.971 613.386 409.83C613.386 413.69 616.514 416.818 620.372 416.818Z" fill="white" fill-opacity="0.05"/>
<path d="M11.6951 440.211C15.5538 440.211 18.6818 437.082 18.6818 433.223C18.6818 429.364 15.5538 426.236 11.6951 426.236C7.83647 426.236 4.70842 429.364 4.70842 433.223C4.70842 437.082 7.83647 440.211 11.6951 440.211Z" fill="white" fill-opacity="0.05"/>
<path d="M152.188 440.211C156.047 440.211 159.175 437.082 159.175 433.223C159.175 429.364 156.047 426.236 152.188 426.236C148.33 426.236 145.202 429.364 145.202 433.223C145.202 437.082 148.33 440.211 152.188 440.211Z" fill="white" fill-opacity="0.05"/>
<path d="M198.969 440.211C202.827 440.211 205.955 437.082 205.955 433.223C205.955 429.364 202.827 426.236 198.969 426.236C195.11 426.236 191.982 429.364 191.982 433.223C191.982 437.082 195.11 440.211 198.969 440.211Z" fill="white" fill-opacity="0.05"/>
<path d="M479.879 440.211C483.738 440.211 486.866 437.082 486.866 433.223C486.866 429.364 483.738 426.236 479.879 426.236C476.021 426.236 472.893 429.364 472.893 433.223C472.893 437.082 476.021 440.211 479.879 440.211Z" fill="white" fill-opacity="0.05"/>
<path d="M526.736 440.211C530.594 440.211 533.722 437.082 533.722 433.223C533.722 429.364 530.594 426.236 526.736 426.236C522.877 426.236 519.749 429.364 519.749 433.223C519.749 437.082 522.877 440.211 526.736 440.211Z" fill="white" fill-opacity="0.05"/>
<path d="M596.982 440.211C600.841 440.211 603.969 437.082 603.969 433.223C603.969 429.364 600.841 426.236 596.982 426.236C593.124 426.236 589.996 429.364 589.996 433.223C589.996 437.082 593.124 440.211 596.982 440.211Z" fill="white" fill-opacity="0.05"/>
<path d="M58.5515 463.604C62.4101 463.604 65.5382 460.475 65.5382 456.616C65.5382 452.757 62.4101 449.629 58.5515 449.629C54.6929 449.629 51.5648 452.757 51.5648 456.616C51.5648 460.475 54.6929 463.604 58.5515 463.604Z" fill="white" fill-opacity="0.05"/>
<path d="M81.9417 463.604C85.8004 463.604 88.9284 460.475 88.9284 456.616C88.9284 452.757 85.8004 449.629 81.9417 449.629C78.0831 449.629 74.955 452.757 74.955 456.616C74.955 460.475 78.0831 463.604 81.9417 463.604Z" fill="white" fill-opacity="0.05"/>
<path d="M128.722 463.604C132.581 463.604 135.709 460.475 135.709 456.616C135.709 452.757 132.581 449.629 128.722 449.629C124.864 449.629 121.735 452.757 121.735 456.616C121.735 460.475 124.864 463.604 128.722 463.604Z" fill="white" fill-opacity="0.05"/>
<path d="M222.359 463.604C226.218 463.604 229.346 460.475 229.346 456.616C229.346 452.757 226.218 449.629 222.359 449.629C218.5 449.629 215.372 452.757 215.372 456.616C215.372 460.475 218.5 463.604 222.359 463.604Z" fill="white" fill-opacity="0.05"/>
<path d="M245.825 463.604C249.684 463.604 252.812 460.475 252.812 456.616C252.812 452.757 249.684 449.629 245.825 449.629C241.967 449.629 238.839 452.757 238.839 456.616C238.839 460.475 241.967 463.604 245.825 463.604Z" fill="white" fill-opacity="0.05"/>
<path d="M269.215 463.604C273.074 463.604 276.202 460.475 276.202 456.616C276.202 452.757 273.074 449.629 269.215 449.629C265.357 449.629 262.229 452.757 262.229 456.616C262.229 460.475 265.357 463.604 269.215 463.604Z" fill="white" fill-opacity="0.05"/>
<path d="M315.996 463.604C319.854 463.604 322.983 460.475 322.983 456.616C322.983 452.757 319.854 449.629 315.996 449.629C312.137 449.629 309.009 452.757 309.009 456.616C309.009 460.475 312.137 463.604 315.996 463.604Z" fill="white" fill-opacity="0.05"/>
<path d="M386.242 463.604C390.101 463.604 393.229 460.475 393.229 456.616C393.229 452.757 390.101 449.629 386.242 449.629C382.384 449.629 379.256 452.757 379.256 456.616C379.256 460.475 382.384 463.604 386.242 463.604Z" fill="white" fill-opacity="0.05"/>
<path d="M409.709 463.604C413.567 463.604 416.695 460.475 416.695 456.616C416.695 452.757 413.567 449.629 409.709 449.629C405.85 449.629 402.722 452.757 402.722 456.616C402.722 460.475 405.85 463.604 409.709 463.604Z" fill="white" fill-opacity="0.05"/>
<path d="M503.345 463.604C507.204 463.604 510.332 460.475 510.332 456.616C510.332 452.757 507.204 449.629 503.345 449.629C499.487 449.629 496.359 452.757 496.359 456.616C496.359 460.475 499.487 463.604 503.345 463.604Z" fill="white" fill-opacity="0.05"/>
<path d="M526.736 463.604C530.594 463.604 533.722 460.475 533.722 456.616C533.722 452.757 530.594 449.629 526.736 449.629C522.877 449.629 519.749 452.757 519.749 456.616C519.749 460.475 522.877 463.604 526.736 463.604Z" fill="white" fill-opacity="0.05"/>
<path d="M550.126 463.604C553.985 463.604 557.113 460.475 557.113 456.616C557.113 452.757 553.985 449.629 550.126 449.629C546.267 449.629 543.139 452.757 543.139 456.616C543.139 460.475 546.267 463.604 550.126 463.604Z" fill="white" fill-opacity="0.05"/>
<path d="M596.982 463.604C600.841 463.604 603.969 460.475 603.969 456.616C603.969 452.757 600.841 449.629 596.982 449.629C593.124 449.629 589.996 452.757 589.996 456.616C589.996 460.475 593.124 463.604 596.982 463.604Z" fill="white" fill-opacity="0.05"/>
<path d="M620.372 463.604C624.231 463.604 627.359 460.475 627.359 456.616C627.359 452.757 624.231 449.629 620.372 449.629C616.514 449.629 613.386 452.757 613.386 456.616C613.386 460.475 616.514 463.604 620.372 463.604Z" fill="white" fill-opacity="0.05"/>
<path d="M667.153 463.604C671.012 463.604 674.14 460.475 674.14 456.616C674.14 452.757 671.012 449.629 667.153 449.629C663.294 449.629 660.166 452.757 660.166 456.616C660.166 460.475 663.294 463.604 667.153 463.604Z" fill="white" fill-opacity="0.05"/>
<path d="M35.0853 487.072C38.944 487.072 42.072 483.944 42.072 480.085C42.072 476.226 38.944 473.097 35.0853 473.097C31.2267 473.097 28.0986 476.226 28.0986 480.085C28.0986 483.944 31.2267 487.072 35.0853 487.072Z" fill="white" fill-opacity="0.05"/>
<path d="M128.722 487.072C132.581 487.072 135.709 483.944 135.709 480.085C135.709 476.226 132.581 473.097 128.722 473.097C124.864 473.097 121.735 476.226 121.735 480.085C121.735 483.944 124.864 487.072 128.722 487.072Z" fill="white" fill-opacity="0.05"/>
<path d="M152.188 487.072C156.047 487.072 159.175 483.944 159.175 480.085C159.175 476.226 156.047 473.097 152.188 473.097C148.33 473.097 145.202 476.226 145.202 480.085C145.202 483.944 148.33 487.072 152.188 487.072Z" fill="white" fill-opacity="0.05"/>
<path d="M198.969 487.072C202.827 487.072 205.955 483.944 205.955 480.085C205.955 476.226 202.827 473.097 198.969 473.097C195.11 473.097 191.982 476.226 191.982 480.085C191.982 483.944 195.11 487.072 198.969 487.072Z" fill="white" fill-opacity="0.05"/>
<path d="M339.462 487.072C343.321 487.072 346.449 483.944 346.449 480.085C346.449 476.226 343.321 473.097 339.462 473.097C335.603 473.097 332.475 476.226 332.475 480.085C332.475 483.944 335.603 487.072 339.462 487.072Z" fill="white" fill-opacity="0.05"/>
<path d="M433.099 487.072C436.958 487.072 440.086 483.944 440.086 480.085C440.086 476.226 436.958 473.097 433.099 473.097C429.24 473.097 426.112 476.226 426.112 480.085C426.112 483.944 429.24 487.072 433.099 487.072Z" fill="white" fill-opacity="0.05"/>
<path d="M479.879 487.072C483.738 487.072 486.866 483.944 486.866 480.085C486.866 476.226 483.738 473.097 479.879 473.097C476.021 473.097 472.893 476.226 472.893 480.085C472.893 483.944 476.021 487.072 479.879 487.072Z" fill="white" fill-opacity="0.05"/>
<path d="M503.345 487.072C507.204 487.072 510.332 483.944 510.332 480.085C510.332 476.226 507.204 473.097 503.345 473.097C499.487 473.097 496.359 476.226 496.359 480.085C496.359 483.944 499.487 487.072 503.345 487.072Z" fill="white" fill-opacity="0.05"/>
<path d="M526.736 487.072C530.594 487.072 533.722 483.944 533.722 480.085C533.722 476.226 530.594 473.097 526.736 473.097C522.877 473.097 519.749 476.226 519.749 480.085C519.749 483.944 522.877 487.072 526.736 487.072Z" fill="white" fill-opacity="0.05"/>
<path d="M550.126 487.072C553.985 487.072 557.113 483.944 557.113 480.085C557.113 476.226 553.985 473.097 550.126 473.097C546.267 473.097 543.139 476.226 543.139 480.085C543.139 483.944 546.267 487.072 550.126 487.072Z" fill="white" fill-opacity="0.05"/>
<path d="M573.516 487.072C577.375 487.072 580.503 483.944 580.503 480.085C580.503 476.226 577.375 473.097 573.516 473.097C569.657 473.097 566.529 476.226 566.529 480.085C566.529 483.944 569.657 487.072 573.516 487.072Z" fill="white" fill-opacity="0.05"/>
<path d="M596.982 487.072C600.841 487.072 603.969 483.944 603.969 480.085C603.969 476.226 600.841 473.097 596.982 473.097C593.124 473.097 589.996 476.226 589.996 480.085C589.996 483.944 593.124 487.072 596.982 487.072Z" fill="white" fill-opacity="0.05"/>
<path d="M620.372 487.072C624.231 487.072 627.359 483.944 627.359 480.085C627.359 476.226 624.231 473.097 620.372 473.097C616.514 473.097 613.386 476.226 613.386 480.085C613.386 483.944 616.514 487.072 620.372 487.072Z" fill="white" fill-opacity="0.05"/>
<path d="M643.763 487.072C647.621 487.072 650.749 483.944 650.749 480.085C650.749 476.226 647.621 473.097 643.763 473.097C639.904 473.097 636.776 476.226 636.776 480.085C636.776 483.944 639.904 487.072 643.763 487.072Z" fill="white" fill-opacity="0.05"/>
<path d="M667.153 487.072C671.012 487.072 674.14 483.944 674.14 480.085C674.14 476.226 671.012 473.097 667.153 473.097C663.294 473.097 660.166 476.226 660.166 480.085C660.166 483.944 663.294 487.072 667.153 487.072Z" fill="white" fill-opacity="0.05"/>
<path d="M198.969 510.465C202.827 510.465 205.955 507.337 205.955 503.478C205.955 499.619 202.827 496.49 198.969 496.49C195.11 496.49 191.982 499.619 191.982 503.478C191.982 507.337 195.11 510.465 198.969 510.465Z" fill="white" fill-opacity="0.05"/>
<path d="M269.215 510.465C273.074 510.465 276.202 507.337 276.202 503.478C276.202 499.619 273.074 496.49 269.215 496.49C265.357 496.49 262.229 499.619 262.229 503.478C262.229 507.337 265.357 510.465 269.215 510.465Z" fill="white" fill-opacity="0.05"/>
<path d="M456.489 510.465C460.348 510.465 463.476 507.337 463.476 503.478C463.476 499.619 460.348 496.49 456.489 496.49C452.63 496.49 449.502 499.619 449.502 503.478C449.502 507.337 452.63 510.465 456.489 510.465Z" fill="white" fill-opacity="0.05"/>
<path d="M479.879 510.465C483.738 510.465 486.866 507.337 486.866 503.478C486.866 499.619 483.738 496.49 479.879 496.49C476.021 496.49 472.893 499.619 472.893 503.478C472.893 507.337 476.021 510.465 479.879 510.465Z" fill="white" fill-opacity="0.05"/>
<path d="M573.516 510.465C577.375 510.465 580.503 507.337 580.503 503.478C580.503 499.619 577.375 496.49 573.516 496.49C569.657 496.49 566.529 499.619 566.529 503.478C566.529 507.337 569.657 510.465 573.516 510.465Z" fill="white" fill-opacity="0.05"/>
<path d="M596.982 510.465C600.841 510.465 603.969 507.337 603.969 503.478C603.969 499.619 600.841 496.49 596.982 496.49C593.124 496.49 589.996 499.619 589.996 503.478C589.996 507.337 593.124 510.465 596.982 510.465Z" fill="white" fill-opacity="0.05"/>
<path d="M643.763 510.465C647.621 510.465 650.749 507.337 650.749 503.478C650.749 499.619 647.621 496.49 643.763 496.49C639.904 496.49 636.776 499.619 636.776 503.478C636.776 507.337 639.904 510.465 643.763 510.465Z" fill="white" fill-opacity="0.05"/>
<path d="M667.153 510.465C671.012 510.465 674.14 507.337 674.14 503.478C674.14 499.619 671.012 496.49 667.153 496.49C663.294 496.49 660.166 499.619 660.166 503.478C660.166 507.337 663.294 510.465 667.153 510.465Z" fill="white" fill-opacity="0.05"/>
<path d="M198.969 533.858C202.827 533.858 205.955 530.73 205.955 526.871C205.955 523.011 202.827 519.883 198.969 519.883C195.11 519.883 191.982 523.011 191.982 526.871C191.982 530.73 195.11 533.858 198.969 533.858Z" fill="white" fill-opacity="0.05"/>
<path d="M292.606 533.858C296.464 533.858 299.592 530.73 299.592 526.871C299.592 523.011 296.464 519.883 292.606 519.883C288.747 519.883 285.619 523.011 285.619 526.871C285.619 530.73 288.747 533.858 292.606 533.858Z" fill="white" fill-opacity="0.05"/>
<path d="M315.996 533.858C319.854 533.858 322.983 530.73 322.983 526.871C322.983 523.011 319.854 519.883 315.996 519.883C312.137 519.883 309.009 523.011 309.009 526.871C309.009 530.73 312.137 533.858 315.996 533.858Z" fill="white" fill-opacity="0.05"/>
<path d="M362.852 533.858C366.711 533.858 369.839 530.73 369.839 526.871C369.839 523.011 366.711 519.883 362.852 519.883C358.994 519.883 355.866 523.011 355.866 526.871C355.866 530.73 358.994 533.858 362.852 533.858Z" fill="white" fill-opacity="0.05"/>
<path d="M386.242 533.858C390.101 533.858 393.229 530.73 393.229 526.871C393.229 523.011 390.101 519.883 386.242 519.883C382.384 519.883 379.256 523.011 379.256 526.871C379.256 530.73 382.384 533.858 386.242 533.858Z" fill="white" fill-opacity="0.05"/>
<path d="M456.489 533.858C460.348 533.858 463.476 530.73 463.476 526.871C463.476 523.011 460.348 519.883 456.489 519.883C452.63 519.883 449.502 523.011 449.502 526.871C449.502 530.73 452.63 533.858 456.489 533.858Z" fill="white" fill-opacity="0.05"/>
<path d="M479.879 533.858C483.738 533.858 486.866 530.73 486.866 526.871C486.866 523.011 483.738 519.883 479.879 519.883C476.021 519.883 472.893 523.011 472.893 526.871C472.893 530.73 476.021 533.858 479.879 533.858Z" fill="white" fill-opacity="0.05"/>
<path d="M526.736 533.858C530.594 533.858 533.722 530.73 533.722 526.871C533.722 523.011 530.594 519.883 526.736 519.883C522.877 519.883 519.749 523.011 519.749 526.871C519.749 530.73 522.877 533.858 526.736 533.858Z" fill="white" fill-opacity="0.05"/>
<path d="M573.516 533.858C577.375 533.858 580.503 530.73 580.503 526.871C580.503 523.011 577.375 519.883 573.516 519.883C569.657 519.883 566.529 523.011 566.529 526.871C566.529 530.73 569.657 533.858 573.516 533.858Z" fill="white" fill-opacity="0.05"/>
<path d="M620.372 533.858C624.231 533.858 627.359 530.73 627.359 526.871C627.359 523.011 624.231 519.883 620.372 519.883C616.514 519.883 613.386 523.011 613.386 526.871C613.386 530.73 616.514 533.858 620.372 533.858Z" fill="white" fill-opacity="0.05"/>
<path d="M643.763 533.858C647.621 533.858 650.749 530.73 650.749 526.871C650.749 523.011 647.621 519.883 643.763 519.883C639.904 519.883 636.776 523.011 636.776 526.871C636.776 530.73 639.904 533.858 643.763 533.858Z" fill="white" fill-opacity="0.05"/>
<path d="M222.359 557.251C226.218 557.251 229.346 554.122 229.346 550.263C229.346 546.404 226.218 543.276 222.359 543.276C218.5 543.276 215.372 546.404 215.372 550.263C215.372 554.122 218.5 557.251 222.359 557.251Z" fill="white" fill-opacity="0.05"/>
<path d="M339.462 557.251C343.321 557.251 346.449 554.122 346.449 550.263C346.449 546.404 343.321 543.276 339.462 543.276C335.603 543.276 332.475 546.404 332.475 550.263C332.475 554.122 335.603 557.251 339.462 557.251Z" fill="white" fill-opacity="0.05"/>
<path d="M362.852 557.251C366.711 557.251 369.839 554.122 369.839 550.263C369.839 546.404 366.711 543.276 362.852 543.276C358.994 543.276 355.866 546.404 355.866 550.263C355.866 554.122 358.994 557.251 362.852 557.251Z" fill="white" fill-opacity="0.05"/>
<path d="M386.242 557.251C390.101 557.251 393.229 554.122 393.229 550.263C393.229 546.404 390.101 543.276 386.242 543.276C382.384 543.276 379.256 546.404 379.256 550.263C379.256 554.122 382.384 557.251 386.242 557.251Z" fill="white" fill-opacity="0.05"/>
<path d="M433.099 557.251C436.958 557.251 440.086 554.122 440.086 550.263C440.086 546.404 436.958 543.276 433.099 543.276C429.24 543.276 426.112 546.404 426.112 550.263C426.112 554.122 429.24 557.251 433.099 557.251Z" fill="white" fill-opacity="0.05"/>
<path d="M479.879 557.251C483.738 557.251 486.866 554.122 486.866 550.263C486.866 546.404 483.738 543.276 479.879 543.276C476.021 543.276 472.893 546.404 472.893 550.263C472.893 554.122 476.021 557.251 479.879 557.251Z" fill="white" fill-opacity="0.05"/>
<path d="M573.516 557.251C577.375 557.251 580.503 554.122 580.503 550.263C580.503 546.404 577.375 543.276 573.516 543.276C569.657 543.276 566.529 546.404 566.529 550.263C566.529 554.122 569.657 557.251 573.516 557.251Z" fill="white" fill-opacity="0.05"/>
<path d="M222.359 580.72C226.218 580.72 229.346 577.591 229.346 573.732C229.346 569.873 226.218 566.745 222.359 566.745C218.5 566.745 215.372 569.873 215.372 573.732C215.372 577.591 218.5 580.72 222.359 580.72Z" fill="white" fill-opacity="0.05"/>
<path d="M292.606 580.72C296.464 580.72 299.592 577.591 299.592 573.732C299.592 569.873 296.464 566.745 292.606 566.745C288.747 566.745 285.619 569.873 285.619 573.732C285.619 577.591 288.747 580.72 292.606 580.72Z" fill="white" fill-opacity="0.05"/>
<path d="M433.099 580.72C436.958 580.72 440.086 577.591 440.086 573.732C440.086 569.873 436.958 566.745 433.099 566.745C429.24 566.745 426.112 569.873 426.112 573.732C426.112 577.591 429.24 580.72 433.099 580.72Z" fill="white" fill-opacity="0.05"/>
<path d="M479.879 580.72C483.738 580.72 486.866 577.591 486.866 573.732C486.866 569.873 483.738 566.745 479.879 566.745C476.021 566.745 472.893 569.873 472.893 573.732C472.893 577.591 476.021 580.72 479.879 580.72Z" fill="white" fill-opacity="0.05"/>
<path d="M503.345 580.72C507.204 580.72 510.332 577.591 510.332 573.732C510.332 569.873 507.204 566.745 503.345 566.745C499.487 566.745 496.359 569.873 496.359 573.732C496.359 577.591 499.487 580.72 503.345 580.72Z" fill="white" fill-opacity="0.05"/>
<path d="M526.736 580.72C530.594 580.72 533.722 577.591 533.722 573.732C533.722 569.873 530.594 566.745 526.736 566.745C522.877 566.745 519.749 569.873 519.749 573.732C519.749 577.591 522.877 580.72 526.736 580.72Z" fill="white" fill-opacity="0.05"/>
<path d="M550.126 580.72C553.985 580.72 557.113 577.591 557.113 573.732C557.113 569.873 553.985 566.745 550.126 566.745C546.267 566.745 543.139 569.873 543.139 573.732C543.139 577.591 546.267 580.72 550.126 580.72Z" fill="white" fill-opacity="0.05"/>
<path d="M573.516 580.72C577.375 580.72 580.503 577.591 580.503 573.732C580.503 569.873 577.375 566.745 573.516 566.745C569.657 566.745 566.529 569.873 566.529 573.732C566.529 577.591 569.657 580.72 573.516 580.72Z" fill="white" fill-opacity="0.05"/>
<path d="M596.982 580.72C600.841 580.72 603.969 577.591 603.969 573.732C603.969 569.873 600.841 566.745 596.982 566.745C593.124 566.745 589.996 569.873 589.996 573.732C589.996 577.591 593.124 580.72 596.982 580.72Z" fill="white" fill-opacity="0.05"/>
<path d="M620.372 580.72C624.231 580.72 627.359 577.591 627.359 573.732C627.359 569.873 624.231 566.745 620.372 566.745C616.514 566.745 613.386 569.873 613.386 573.732C613.386 577.591 616.514 580.72 620.372 580.72Z" fill="white" fill-opacity="0.05"/>
<path d="M667.153 580.72C671.012 580.72 674.14 577.591 674.14 573.732C674.14 569.873 671.012 566.745 667.153 566.745C663.294 566.745 660.166 569.873 660.166 573.732C660.166 577.591 663.294 580.72 667.153 580.72Z" fill="white" fill-opacity="0.05"/>
<path d="M198.969 604.112C202.827 604.112 205.955 600.984 205.955 597.125C205.955 593.266 202.827 590.138 198.969 590.138C195.11 590.138 191.982 593.266 191.982 597.125C191.982 600.984 195.11 604.112 198.969 604.112Z" fill="white" fill-opacity="0.05"/>
<path d="M222.359 604.112C226.218 604.112 229.346 600.984 229.346 597.125C229.346 593.266 226.218 590.138 222.359 590.138C218.5 590.138 215.372 593.266 215.372 597.125C215.372 600.984 218.5 604.112 222.359 604.112Z" fill="white" fill-opacity="0.05"/>
<path d="M292.606 604.112C296.464 604.112 299.592 600.984 299.592 597.125C299.592 593.266 296.464 590.138 292.606 590.138C288.747 590.138 285.619 593.266 285.619 597.125C285.619 600.984 288.747 604.112 292.606 604.112Z" fill="white" fill-opacity="0.05"/>
<path d="M339.462 604.112C343.321 604.112 346.449 600.984 346.449 597.125C346.449 593.266 343.321 590.138 339.462 590.138C335.603 590.138 332.475 593.266 332.475 597.125C332.475 600.984 335.603 604.112 339.462 604.112Z" fill="white" fill-opacity="0.05"/>
<path d="M362.852 604.112C366.711 604.112 369.839 600.984 369.839 597.125C369.839 593.266 366.711 590.138 362.852 590.138C358.994 590.138 355.866 593.266 355.866 597.125C355.866 600.984 358.994 604.112 362.852 604.112Z" fill="white" fill-opacity="0.05"/>
<path d="M386.242 604.112C390.101 604.112 393.229 600.984 393.229 597.125C393.229 593.266 390.101 590.138 386.242 590.138C382.384 590.138 379.256 593.266 379.256 597.125C379.256 600.984 382.384 604.112 386.242 604.112Z" fill="white" fill-opacity="0.05"/>
<path d="M433.099 604.112C436.958 604.112 440.086 600.984 440.086 597.125C440.086 593.266 436.958 590.138 433.099 590.138C429.24 590.138 426.112 593.266 426.112 597.125C426.112 600.984 429.24 604.112 433.099 604.112Z" fill="white" fill-opacity="0.05"/>
<path d="M456.489 604.112C460.348 604.112 463.476 600.984 463.476 597.125C463.476 593.266 460.348 590.138 456.489 590.138C452.63 590.138 449.502 593.266 449.502 597.125C449.502 600.984 452.63 604.112 456.489 604.112Z" fill="white" fill-opacity="0.05"/>
<path d="M573.516 604.112C577.375 604.112 580.503 600.984 580.503 597.125C580.503 593.266 577.375 590.138 573.516 590.138C569.657 590.138 566.529 593.266 566.529 597.125C566.529 600.984 569.657 604.112 573.516 604.112Z" fill="white" fill-opacity="0.05"/>
<path d="M596.982 604.112C600.841 604.112 603.969 600.984 603.969 597.125C603.969 593.266 600.841 590.138 596.982 590.138C593.124 590.138 589.996 593.266 589.996 597.125C589.996 600.984 593.124 604.112 596.982 604.112Z" fill="white" fill-opacity="0.05"/>
<path d="M643.763 604.112C647.621 604.112 650.749 600.984 650.749 597.125C650.749 593.266 647.621 590.138 643.763 590.138C639.904 590.138 636.776 593.266 636.776 597.125C636.776 600.984 639.904 604.112 643.763 604.112Z" fill="white" fill-opacity="0.05"/>
<path d="M198.969 627.505C202.827 627.505 205.955 624.377 205.955 620.518C205.955 616.659 202.827 613.53 198.969 613.53C195.11 613.53 191.982 616.659 191.982 620.518C191.982 624.377 195.11 627.505 198.969 627.505Z" fill="white" fill-opacity="0.05"/>
<path d="M292.606 627.505C296.464 627.505 299.592 624.377 299.592 620.518C299.592 616.659 296.464 613.53 292.606 613.53C288.747 613.53 285.619 616.659 285.619 620.518C285.619 624.377 288.747 627.505 292.606 627.505Z" fill="white" fill-opacity="0.05"/>
<path d="M315.996 627.505C319.854 627.505 322.983 624.377 322.983 620.518C322.983 616.659 319.854 613.53 315.996 613.53C312.137 613.53 309.009 616.659 309.009 620.518C309.009 624.377 312.137 627.505 315.996 627.505Z" fill="white" fill-opacity="0.05"/>
<path d="M386.242 627.505C390.101 627.505 393.229 624.377 393.229 620.518C393.229 616.659 390.101 613.53 386.242 613.53C382.384 613.53 379.256 616.659 379.256 620.518C379.256 624.377 382.384 627.505 386.242 627.505Z" fill="white" fill-opacity="0.05"/>
<path d="M433.099 627.505C436.958 627.505 440.086 624.377 440.086 620.518C440.086 616.659 436.958 613.53 433.099 613.53C429.24 613.53 426.112 616.659 426.112 620.518C426.112 624.377 429.24 627.505 433.099 627.505Z" fill="white" fill-opacity="0.05"/>
<path d="M479.879 627.505C483.738 627.505 486.866 624.377 486.866 620.518C486.866 616.659 483.738 613.53 479.879 613.53C476.021 613.53 472.893 616.659 472.893 620.518C472.893 624.377 476.021 627.505 479.879 627.505Z" fill="white" fill-opacity="0.05"/>
<path d="M550.126 627.505C553.985 627.505 557.113 624.377 557.113 620.518C557.113 616.659 553.985 613.53 550.126 613.53C546.267 613.53 543.139 616.659 543.139 620.518C543.139 624.377 546.267 627.505 550.126 627.505Z" fill="white" fill-opacity="0.05"/>
<path d="M620.372 627.505C624.231 627.505 627.359 624.377 627.359 620.518C627.359 616.659 624.231 613.53 620.372 613.53C616.514 613.53 613.386 616.659 613.386 620.518C613.386 624.377 616.514 627.505 620.372 627.505Z" fill="white" fill-opacity="0.05"/>
<path d="M667.153 627.505C671.012 627.505 674.14 624.377 674.14 620.518C674.14 616.659 671.012 613.53 667.153 613.53C663.294 613.53 660.166 616.659 660.166 620.518C660.166 624.377 663.294 627.505 667.153 627.505Z" fill="white" fill-opacity="0.05"/>
<path d="M245.825 650.898C249.684 650.898 252.812 647.77 252.812 643.911C252.812 640.052 249.684 636.923 245.825 636.923C241.967 636.923 238.839 640.052 238.839 643.911C238.839 647.77 241.967 650.898 245.825 650.898Z" fill="white" fill-opacity="0.05"/>
<path d="M269.215 650.898C273.074 650.898 276.202 647.77 276.202 643.911C276.202 640.052 273.074 636.923 269.215 636.923C265.357 636.923 262.229 640.052 262.229 643.911C262.229 647.77 265.357 650.898 269.215 650.898Z" fill="white" fill-opacity="0.05"/>
<path d="M479.879 650.898C483.738 650.898 486.866 647.77 486.866 643.911C486.866 640.052 483.738 636.923 479.879 636.923C476.021 636.923 472.893 640.052 472.893 643.911C472.893 647.77 476.021 650.898 479.879 650.898Z" fill="white" fill-opacity="0.05"/>
<path d="M526.736 650.898C530.594 650.898 533.722 647.77 533.722 643.911C533.722 640.052 530.594 636.923 526.736 636.923C522.877 636.923 519.749 640.052 519.749 643.911C519.749 647.77 522.877 650.898 526.736 650.898Z" fill="white" fill-opacity="0.05"/>
<path d="M573.516 650.898C577.375 650.898 580.503 647.77 580.503 643.911C580.503 640.052 577.375 636.923 573.516 636.923C569.657 636.923 566.529 640.052 566.529 643.911C566.529 647.77 569.657 650.898 573.516 650.898Z" fill="white" fill-opacity="0.05"/>
<path d="M596.982 650.898C600.841 650.898 603.969 647.77 603.969 643.911C603.969 640.052 600.841 636.923 596.982 636.923C593.124 636.923 589.996 640.052 589.996 643.911C589.996 647.77 593.124 650.898 596.982 650.898Z" fill="white" fill-opacity="0.05"/>
<path d="M643.763 650.898C647.621 650.898 650.749 647.77 650.749 643.911C650.749 640.052 647.621 636.923 643.763 636.923C639.904 636.923 636.776 640.052 636.776 643.911C636.776 647.77 639.904 650.898 643.763 650.898Z" fill="white" fill-opacity="0.05"/>
<path d="M222.359 674.367C226.218 674.367 229.346 671.239 229.346 667.38C229.346 663.52 226.218 660.392 222.359 660.392C218.5 660.392 215.372 663.52 215.372 667.38C215.372 671.239 218.5 674.367 222.359 674.367Z" fill="white" fill-opacity="0.05"/>
<path d="M339.462 674.367C343.321 674.367 346.449 671.239 346.449 667.38C346.449 663.52 343.321 660.392 339.462 660.392C335.603 660.392 332.475 663.52 332.475 667.38C332.475 671.239 335.603 674.367 339.462 674.367Z" fill="white" fill-opacity="0.05"/>
<path d="M362.852 674.367C366.711 674.367 369.839 671.239 369.839 667.38C369.839 663.52 366.711 660.392 362.852 660.392C358.994 660.392 355.866 663.52 355.866 667.38C355.866 671.239 358.994 674.367 362.852 674.367Z" fill="white" fill-opacity="0.05"/>
<path d="M433.099 674.367C436.958 674.367 440.086 671.239 440.086 667.38C440.086 663.52 436.958 660.392 433.099 660.392C429.24 660.392 426.112 663.52 426.112 667.38C426.112 671.239 429.24 674.367 433.099 674.367Z" fill="white" fill-opacity="0.05"/>
<path d="M456.489 674.367C460.348 674.367 463.476 671.239 463.476 667.38C463.476 663.52 460.348 660.392 456.489 660.392C452.63 660.392 449.502 663.52 449.502 667.38C449.502 671.239 452.63 674.367 456.489 674.367Z" fill="white" fill-opacity="0.05"/>
<path d="M479.879 674.367C483.738 674.367 486.866 671.239 486.866 667.38C486.866 663.52 483.738 660.392 479.879 660.392C476.021 660.392 472.893 663.52 472.893 667.38C472.893 671.239 476.021 674.367 479.879 674.367Z" fill="white" fill-opacity="0.05"/>
<path d="M526.736 674.367C530.594 674.367 533.722 671.239 533.722 667.38C533.722 663.52 530.594 660.392 526.736 660.392C522.877 660.392 519.749 663.52 519.749 667.38C519.749 671.239 522.877 674.367 526.736 674.367Z" fill="white" fill-opacity="0.05"/>
<path d="M550.126 674.367C553.985 674.367 557.113 671.239 557.113 667.38C557.113 663.52 553.985 660.392 550.126 660.392C546.267 660.392 543.139 663.52 543.139 667.38C543.139 671.239 546.267 674.367 550.126 674.367Z" fill="white" fill-opacity="0.05"/>
<path d="M596.982 674.367C600.841 674.367 603.969 671.239 603.969 667.38C603.969 663.52 600.841 660.392 596.982 660.392C593.124 660.392 589.996 663.52 589.996 667.38C589.996 671.239 593.124 674.367 596.982 674.367Z" fill="white" fill-opacity="0.05"/>
<path d="M643.763 674.367C647.621 674.367 650.749 671.239 650.749 667.38C650.749 663.52 647.621 660.392 643.763 660.392C639.904 660.392 636.776 663.52 636.776 667.38C636.776 671.239 639.904 674.367 643.763 674.367Z" fill="white" fill-opacity="0.05"/>
<path d="M117.027 66.0012V117.192H66.2217C55.5138 117.192 46.8564 108.61 46.8564 98.0524V66.0012C46.8564 55.4441 55.5138 46.9376 66.2217 46.9376H97.6618C108.37 46.9376 117.027 55.52 117.027 66.0012Z" fill="white" fill-opacity="0.05"/>
<path d="M107.914 0.0759508H55.9695C25.1369 0.0759508 0 24.9119 0 55.3681V108.61C0 139.142 25.1369 163.902 55.8935 163.902H163.808V55.3681C163.808 24.8359 138.671 0.0759508 107.838 0.0759508H107.914ZM139.278 139.37H55.8935C38.5787 139.37 24.5294 125.547 24.5294 108.61V55.3681C24.5294 38.4311 38.5787 24.684 55.8935 24.684H107.838C125.153 24.684 139.202 38.4311 139.202 55.3681V139.37H139.278Z" fill="white" fill-opacity="0.05"/>
<path d="M632.068 66.0012V98.0525C632.068 108.61 623.41 117.116 612.702 117.116H561.897V66.0012C561.897 55.4441 570.554 46.9376 581.262 46.9376H612.702C623.41 46.9376 632.068 55.52 632.068 66.0012Z" fill="white" fill-opacity="0.05"/>
<path d="M622.955 0.0759508H571.01C540.177 0.0759508 515.117 24.9119 515.117 55.3681V163.902H623.031C653.863 163.902 679 139.066 679 108.534V55.2922C679 24.7599 653.863 0 623.031 0L622.955 0.0759508ZM654.319 108.61C654.319 125.547 640.269 139.37 622.955 139.37H539.646V55.4441C539.646 38.507 553.695 24.7599 571.01 24.7599H622.955C640.269 24.7599 654.319 38.507 654.319 55.4441V108.686V108.61Z" fill="white" fill-opacity="0.05"/>
<path d="M117.027 562.036V613.151C117.027 623.708 108.37 632.29 97.6618 632.29H66.2217C55.5138 632.29 46.8564 623.708 46.8564 613.151V581.175C46.8564 570.618 55.5138 562.036 66.2217 562.036H117.027Z" fill="white" fill-opacity="0.05"/>
<path d="M55.8935 515.174C25.061 515.174 0 540.01 0 570.466V623.708C0 654.164 25.1369 679 55.8935 679H107.838C138.671 679 163.808 654.164 163.808 623.708V515.098H55.8935V515.174ZM139.202 623.708C139.202 640.645 125.153 654.392 107.838 654.392H55.8935C38.5787 654.392 24.5294 640.569 24.5294 623.708V570.466C24.5294 553.529 38.5787 539.706 55.8935 539.706H139.202V623.708Z" fill="white" fill-opacity="0.05"/>
<path d="M117.027 66.0012V117.192H66.2217C55.5138 117.192 46.8564 108.61 46.8564 98.0524V66.0012C46.8564 55.4441 55.5138 46.9376 66.2217 46.9376H97.6618C108.37 46.9376 117.027 55.52 117.027 66.0012Z" fill="white" fill-opacity="0.05"/>
<path d="M632.068 66.0012V98.0525C632.068 108.61 623.41 117.116 612.702 117.116H561.897V66.0012C561.897 55.4441 570.554 46.9376 581.262 46.9376H612.702C623.41 46.9376 632.068 55.52 632.068 66.0012Z" fill="white" fill-opacity="0.05"/>
<path d="M117.027 562.036V613.151C117.027 623.708 108.37 632.29 97.6618 632.29H66.2217C55.5138 632.29 46.8564 623.708 46.8564 613.151V581.175C46.8564 570.618 55.5138 562.036 66.2217 562.036H117.027Z" fill="white" fill-opacity="0.05"/>
<path d="M283.189 285.803C287.047 285.803 290.175 282.674 290.175 278.815C290.175 274.956 287.047 271.828 283.189 271.828C279.33 271.828 276.202 274.956 276.202 278.815C276.202 282.674 279.33 285.803 283.189 285.803Z" fill="white" fill-opacity="0.05"/>
<path d="M353.435 285.803C357.294 285.803 360.422 282.674 360.422 278.815C360.422 274.956 357.294 271.828 353.435 271.828C349.577 271.828 346.449 274.956 346.449 278.815C346.449 282.674 349.577 285.803 353.435 285.803Z" fill="white" fill-opacity="0.05"/>
<path d="M376.902 285.803C380.76 285.803 383.888 282.674 383.888 278.815C383.888 274.956 380.76 271.828 376.902 271.828C373.043 271.828 369.915 274.956 369.915 278.815C369.915 282.674 373.043 285.803 376.902 285.803Z" fill="white" fill-opacity="0.05"/>
<path d="M306.655 309.272C310.514 309.272 313.642 306.143 313.642 302.284C313.642 298.425 310.514 295.297 306.655 295.297C302.796 295.297 299.668 298.425 299.668 302.284C299.668 306.143 302.796 309.272 306.655 309.272Z" fill="white" fill-opacity="0.05"/>
<path d="M283.189 356.057C287.047 356.057 290.175 352.929 290.175 349.07C290.175 345.211 287.047 342.082 283.189 342.082C279.33 342.082 276.202 345.211 276.202 349.07C276.202 352.929 279.33 356.057 283.189 356.057Z" fill="white" fill-opacity="0.05"/>
<path d="M330.045 356.057C333.904 356.057 337.032 352.929 337.032 349.07C337.032 345.211 333.904 342.082 330.045 342.082C326.187 342.082 323.059 345.211 323.059 349.07C323.059 352.929 326.187 356.057 330.045 356.057Z" fill="white" fill-opacity="0.05"/>
<path d="M353.435 356.057C357.294 356.057 360.422 352.929 360.422 349.07C360.422 345.211 357.294 342.082 353.435 342.082C349.577 342.082 346.449 345.211 346.449 349.07C346.449 352.929 349.577 356.057 353.435 356.057Z" fill="white" fill-opacity="0.05"/>
<path d="M306.655 379.45C310.514 379.45 313.642 376.322 313.642 372.463C313.642 368.604 310.514 365.475 306.655 365.475C302.796 365.475 299.668 368.604 299.668 372.463C299.668 376.322 302.796 379.45 306.655 379.45Z" fill="white" fill-opacity="0.05"/>
<path d="M330.045 379.45C333.904 379.45 337.032 376.322 337.032 372.463C337.032 368.604 333.904 365.475 330.045 365.475C326.187 365.475 323.059 368.604 323.059 372.463C323.059 376.322 326.187 379.45 330.045 379.45Z" fill="white" fill-opacity="0.05"/>
<path d="M353.435 379.45C357.294 379.45 360.422 376.322 360.422 372.463C360.422 368.604 357.294 365.475 353.435 365.475C349.577 365.475 346.449 368.604 346.449 372.463C346.449 376.322 349.577 379.45 353.435 379.45Z" fill="white" fill-opacity="0.05"/>
<path d="M402.722 356.057C406.581 356.057 409.709 352.929 409.709 349.07C409.709 345.211 406.581 342.082 402.722 342.082C398.863 342.082 395.735 345.211 395.735 349.07C395.735 352.929 398.863 356.057 402.722 356.057Z" fill="white" fill-opacity="0.05"/>
<path d="M402.722 379.45C406.581 379.45 409.709 376.322 409.709 372.463C409.709 368.604 406.581 365.475 402.722 365.475C398.863 365.475 395.735 368.604 395.735 372.463C395.735 376.322 398.863 379.45 402.722 379.45Z" fill="white" fill-opacity="0.05"/>
<path d="M402.722 402.843C406.581 402.843 409.709 399.715 409.709 395.855C409.709 391.996 406.581 388.868 402.722 388.868C398.863 388.868 395.735 391.996 395.735 395.855C395.735 399.715 398.863 402.843 402.722 402.843Z" fill="white" fill-opacity="0.05"/>
<path d="M285.619 426.236C289.478 426.236 292.606 423.107 292.606 419.248C292.606 415.389 289.478 412.261 285.619 412.261C281.76 412.261 278.632 415.389 278.632 419.248C278.632 423.107 281.76 426.236 285.619 426.236Z" fill="white" fill-opacity="0.05"/>
<path d="M309.085 426.236C312.944 426.236 316.072 423.107 316.072 419.248C316.072 415.389 312.944 412.261 309.085 412.261C305.226 412.261 302.098 415.389 302.098 419.248C302.098 423.107 305.226 426.236 309.085 426.236Z" fill="white" fill-opacity="0.05"/>
</svg>
